<svg xmlns="http://www.w3.org/2000/svg" xmlns:xlink="http://www.w3.org/1999/xlink" width="500" zoomAndPan="magnify" viewBox="0 0 375 374.999991" height="500" preserveAspectRatio="xMidYMid meet" version="1.0"><defs><g/><clipPath id="a8eeee0ea1"><path d="M 11.117188 4.65625 L 120 4.65625 L 120 96 L 11.117188 96 Z M 11.117188 4.65625 " clip-rule="nonzero"/></clipPath><clipPath id="902a8ac676"><path d="M 11.117188 91 L 161.117188 91 L 161.117188 144.90625 L 11.117188 144.90625 Z M 11.117188 91 " clip-rule="nonzero"/></clipPath></defs><g clip-path="url(#a8eeee0ea1)"><path fill="#ffffff" d="M 78.320312 53.085938 C 86.210938 48.324219 93.820312 48.925781 98.808594 50.265625 C 104.457031 51.78125 110.328125 51.1875 115.335938 48.59375 C 117.171875 47.644531 118.523438 46.628906 119.496094 45.746094 C 116.644531 47.328125 111.890625 49.375 106.40625 49.375 C 106.03125 49.375 105.652344 49.367188 105.273438 49.347656 C 102.933594 49.222656 100.585938 48.570312 98.289062 47.398438 C 96.75 46.613281 93.695312 45.457031 90.480469 46.503906 C 89.472656 47.140625 88.144531 47.601562 86.410156 47.601562 C 86.195312 47.601562 85.976562 47.59375 85.75 47.578125 C 82.5 47.367188 80.777344 44.910156 80.546875 42.710938 C 80.34375 40.746094 81.253906 38.140625 84.472656 37.25 C 85.507812 36.964844 86.558594 37.039062 87.433594 37.460938 C 88.59375 38.019531 89.175781 39.027344 89.074219 40.300781 C 88.949219 41.859375 88.203125 42.570312 87.59375 42.894531 C 86.699219 43.367188 85.515625 43.308594 84.507812 42.734375 C 84.273438 42.601562 84.191406 42.304688 84.320312 42.070312 C 84.453125 41.835938 84.75 41.753906 84.988281 41.886719 C 85.695312 42.285156 86.539062 42.339844 87.128906 42.027344 C 87.6875 41.730469 88.023438 41.105469 88.09375 40.222656 C 88.164062 39.34375 87.804688 38.726562 87.007812 38.34375 C 86.34375 38.027344 85.539062 37.96875 84.730469 38.191406 C 82.097656 38.917969 81.355469 41.023438 81.519531 42.609375 C 81.707031 44.410156 83.128906 46.429688 85.808594 46.601562 C 87.644531 46.71875 88.992188 46.296875 89.980469 45.679688 C 90.011719 45.652344 90.042969 45.632812 90.082031 45.613281 C 91.898438 44.425781 92.4375 42.597656 92.46875 42.480469 C 92.46875 42.480469 92.472656 42.476562 92.472656 42.46875 C 92.472656 42.464844 92.472656 42.460938 92.472656 42.460938 C 92.839844 41.308594 93.03125 40.105469 93.03125 38.894531 C 93.03125 32.460938 87.789062 27.226562 81.347656 27.226562 C 80.398438 27.226562 79.457031 27.339844 78.535156 27.570312 C 78.402344 27.601562 78.261719 27.578125 78.148438 27.503906 C 78.035156 27.429688 77.957031 27.316406 77.933594 27.179688 C 77.144531 22.804688 73.332031 19.621094 68.867188 19.621094 C 66.460938 19.621094 64.183594 20.546875 62.453125 22.222656 C 62.3125 22.363281 62.09375 22.398438 61.910156 22.316406 C 61.730469 22.234375 61.613281 22.050781 61.625 21.847656 C 61.632812 21.730469 61.632812 21.613281 61.632812 21.492188 C 61.632812 17.394531 58.296875 14.058594 54.1875 14.058594 C 53.417969 14.058594 52.660156 14.175781 51.929688 14.40625 C 51.769531 14.453125 51.59375 14.421875 51.464844 14.3125 C 51.335938 14.207031 51.269531 14.042969 51.292969 13.878906 C 51.335938 13.519531 51.359375 13.164062 51.359375 12.828125 C 51.371094 8.324219 47.699219 4.65625 43.183594 4.65625 C 39.511719 4.65625 36.394531 7.089844 35.363281 10.429688 C 36.328125 9.023438 37.972656 7.644531 40.761719 7.457031 C 46.605469 7.0625 48.492188 11.953125 48.511719 12 C 48.605469 12.253906 48.476562 12.535156 48.222656 12.632812 C 47.96875 12.726562 47.6875 12.59375 47.59375 12.34375 C 47.527344 12.167969 45.929688 8.085938 40.828125 8.4375 C 35.738281 8.773438 35.0625 13.527344 35.039062 13.726562 C 35.039062 13.730469 35.035156 13.730469 35.035156 13.734375 C 35.027344 13.785156 35.007812 13.839844 34.984375 13.882812 C 34.980469 13.898438 34.972656 13.90625 34.960938 13.917969 C 34.941406 13.953125 34.917969 13.984375 34.886719 14.011719 C 34.878906 14.019531 34.867188 14.03125 34.855469 14.039062 C 34.847656 14.046875 34.84375 14.054688 34.839844 14.058594 C 34.332031 14.433594 33.875 14.871094 33.480469 15.367188 C 33.351562 15.53125 33.132812 15.59375 32.9375 15.527344 C 31.964844 15.195312 30.949219 15.027344 29.921875 15.027344 C 24.773438 15.027344 20.585938 19.210938 20.585938 24.351562 C 20.585938 27.109375 21.796875 29.707031 23.910156 31.484375 C 24.242188 31.707031 27.761719 33.886719 31.90625 31.28125 C 30.902344 31.59375 29.902344 31.757812 28.941406 31.757812 C 27.609375 31.757812 26.34375 31.453125 25.25 30.832031 C 23.175781 29.65625 22.0625 27.558594 22.199219 25.074219 C 22.519531 19.199219 26.992188 18.460938 27.035156 18.449219 C 27.304688 18.410156 27.554688 18.59375 27.59375 18.863281 C 27.632812 19.128906 27.453125 19.378906 27.1875 19.421875 C 27.035156 19.441406 23.457031 20.074219 23.179688 25.125 C 23.066406 27.226562 24 28.996094 25.738281 29.980469 C 28.179688 31.363281 31.605469 30.933594 34.679688 28.863281 C 34.710938 28.839844 34.742188 28.820312 34.78125 28.808594 C 34.789062 28.804688 34.800781 28.800781 34.808594 28.800781 C 34.835938 28.789062 34.863281 28.78125 34.890625 28.78125 C 34.898438 28.78125 34.914062 28.777344 34.921875 28.777344 C 34.957031 28.773438 34.984375 28.777344 35.019531 28.78125 C 35.023438 28.78125 35.027344 28.78125 35.035156 28.78125 C 35.292969 28.820312 41.363281 29.765625 43.082031 24.691406 C 44.144531 21.542969 41.804688 20.019531 41.058594 19.625 C 39.335938 18.71875 36.804688 18.675781 35.511719 20.394531 C 34.640625 21.554688 34.480469 22.542969 35.0625 23.175781 C 35.746094 23.914062 37.238281 24.039062 38.195312 23.433594 C 38.421875 23.289062 38.726562 23.359375 38.871094 23.585938 C 39.011719 23.816406 38.945312 24.117188 38.714844 24.261719 C 37.351562 25.121094 35.347656 24.929688 34.339844 23.835938 C 33.902344 23.359375 33.0625 22.011719 34.726562 19.804688 C 36.347656 17.65625 39.433594 17.660156 41.511719 18.761719 C 43.40625 19.757812 45.050781 21.921875 44.003906 25.003906 C 42.246094 30.207031 36.484375 29.925781 35.152344 29.785156 C 32.527344 32.699219 29.886719 33.5 27.769531 33.5 C 25.660156 33.5 24.074219 32.703125 23.539062 32.394531 C 19.226562 33.394531 13.890625 35.617188 11.171875 40.558594 C 16.214844 36.785156 23.082031 36.070312 32.074219 38.375 C 41.476562 40.78125 44.804688 34.324219 44.941406 34.050781 C 45.0625 33.808594 45.359375 33.710938 45.601562 33.828125 C 45.839844 33.949219 45.941406 34.242188 45.820312 34.484375 C 45.785156 34.558594 42.027344 41.929688 31.828125 39.320312 C 30.097656 38.875 28.457031 38.546875 26.898438 38.328125 C 27.851562 38.675781 28.777344 39.074219 29.722656 39.484375 C 32.40625 40.648438 35.175781 41.855469 39.101562 41.855469 C 41.769531 41.855469 44.363281 40.914062 46.410156 39.210938 C 46.515625 39.121094 46.648438 39.082031 46.78125 39.097656 C 46.917969 39.113281 47.039062 39.1875 47.117188 39.292969 C 49.144531 42.027344 52.386719 43.664062 55.78125 43.664062 C 56.703125 43.664062 57.621094 43.546875 58.503906 43.316406 C 58.542969 43.308594 58.585938 43.300781 58.628906 43.300781 C 58.738281 43.300781 58.847656 43.335938 58.933594 43.410156 C 59.054688 43.503906 59.121094 43.652344 59.117188 43.804688 L 59.113281 43.90625 C 59.109375 43.988281 59.105469 44.074219 59.105469 44.15625 C 59.105469 50.589844 64.347656 55.820312 70.789062 55.820312 C 72.691406 55.820312 74.511719 55.375 76.199219 54.492188 C 76.933594 54.109375 77.625 53.652344 78.253906 53.128906 C 78.28125 53.109375 78.300781 53.097656 78.320312 53.085938 Z M 84.003906 29.558594 C 84.804688 29.796875 85.578125 30.128906 86.308594 30.546875 C 87.035156 30.976562 87.722656 31.5 88.265625 32.164062 C 88.8125 32.8125 89.203125 33.617188 89.285156 34.445312 C 88.933594 33.691406 88.464844 33.054688 87.890625 32.507812 C 87.605469 32.238281 87.304688 31.984375 86.980469 31.757812 C 86.664062 31.523438 86.328125 31.308594 85.984375 31.113281 C 85.300781 30.703125 84.570312 30.367188 83.832031 30.039062 C 83.09375 29.71875 82.335938 29.421875 81.558594 29.132812 C 82.386719 29.15625 83.207031 29.320312 84.003906 29.558594 Z M 82.355469 30.644531 C 82.894531 30.75 83.421875 30.902344 83.933594 31.113281 C 84.4375 31.324219 84.929688 31.59375 85.375 31.917969 C 85.820312 32.25 86.222656 32.652344 86.503906 33.128906 C 86.027344 32.839844 85.574219 32.589844 85.109375 32.351562 C 84.636719 32.125 84.160156 31.917969 83.679688 31.714844 C 82.714844 31.3125 81.726562 30.960938 80.71875 30.519531 C 81.277344 30.476562 81.820312 30.539062 82.355469 30.644531 Z M 81.832031 31.839844 C 82.195312 31.890625 82.550781 31.976562 82.894531 32.09375 C 83.242188 32.214844 83.582031 32.367188 83.898438 32.570312 C 84.207031 32.777344 84.53125 33.035156 84.671875 33.402344 C 84.332031 33.226562 84.011719 33.140625 83.679688 33.035156 C 83.347656 32.933594 83.015625 32.828125 82.6875 32.710938 C 82.355469 32.597656 82.023438 32.472656 81.695312 32.332031 C 81.371094 32.1875 81.042969 32.03125 80.722656 31.820312 C 81.101562 31.769531 81.46875 31.792969 81.832031 31.839844 Z M 29.269531 16.738281 C 29.425781 16.6875 29.582031 16.628906 29.746094 16.605469 C 30.070312 16.542969 30.40625 16.53125 30.738281 16.570312 C 31.066406 16.609375 31.398438 16.703125 31.699219 16.855469 C 31.996094 17.011719 32.285156 17.21875 32.453125 17.519531 C 32.125 17.441406 31.828125 17.386719 31.53125 17.339844 C 31.238281 17.289062 30.949219 17.253906 30.65625 17.214844 L 29.765625 17.113281 C 29.460938 17.074219 29.152344 17.046875 28.816406 16.964844 C 28.960938 16.871094 29.113281 16.804688 29.269531 16.738281 Z M 32.230469 18.8125 C 31.988281 18.71875 31.816406 18.632812 31.628906 18.578125 C 31.449219 18.519531 31.28125 18.46875 31.101562 18.425781 C 30.738281 18.332031 30.367188 18.261719 29.894531 18.089844 C 30.082031 17.914062 30.308594 17.824219 30.542969 17.777344 C 30.777344 17.730469 31.023438 17.738281 31.261719 17.796875 C 31.5 17.855469 31.730469 17.980469 31.910156 18.152344 C 32.09375 18.324219 32.214844 18.5625 32.230469 18.8125 Z M 30.183594 25.324219 C 30.453125 25.308594 30.726562 25.28125 31.003906 25.238281 C 31.285156 25.207031 31.566406 25.136719 31.894531 25.101562 C 31.523438 25.636719 30.871094 25.9375 30.222656 25.972656 C 29.894531 25.996094 29.570312 25.953125 29.261719 25.851562 C 28.957031 25.75 28.667969 25.597656 28.445312 25.351562 C 29.09375 25.347656 29.632812 25.367188 30.183594 25.324219 Z M 27.972656 26.730469 C 28.453125 26.824219 28.945312 26.824219 29.433594 26.789062 C 29.929688 26.761719 30.417969 26.65625 30.921875 26.558594 C 31.167969 26.488281 31.421875 26.433594 31.675781 26.371094 C 31.925781 26.304688 32.183594 26.230469 32.453125 26.1875 C 32.246094 26.363281 32.027344 26.511719 31.804688 26.664062 C 31.570312 26.800781 31.328125 26.921875 31.085938 27.039062 C 30.578125 27.238281 30.050781 27.410156 29.488281 27.4375 C 28.933594 27.480469 28.359375 27.421875 27.832031 27.21875 C 27.3125 27.011719 26.824219 26.667969 26.5625 26.1875 C 27.015625 26.476562 27.492188 26.628906 27.972656 26.730469 Z M 31.5 28.308594 C 30.804688 28.644531 30.035156 28.847656 29.25 28.90625 C 28.859375 28.941406 28.464844 28.902344 28.074219 28.863281 C 27.691406 28.769531 27.292969 28.71875 26.941406 28.542969 C 26.203125 28.273438 25.582031 27.777344 25.058594 27.242188 C 25.75 27.566406 26.394531 27.902344 27.101562 28.058594 C 27.445312 28.167969 27.800781 28.199219 28.148438 28.25 C 28.324219 28.253906 28.5 28.269531 28.675781 28.277344 C 28.851562 28.296875 29.03125 28.261719 29.207031 28.257812 C 29.910156 28.21875 30.613281 28.0625 31.308594 27.839844 C 31.996094 27.609375 32.671875 27.316406 33.34375 26.964844 C 32.835938 27.53125 32.191406 27.972656 31.5 28.308594 Z M 40.316406 19.933594 C 40.769531 20.074219 41.210938 20.332031 41.542969 20.707031 C 41.875 21.074219 42.101562 21.550781 42.148438 22.03125 C 42.199219 22.269531 42.15625 22.511719 42.148438 22.742188 C 42.109375 22.972656 42.046875 23.199219 41.964844 23.410156 C 41.898438 23.179688 41.878906 22.964844 41.828125 22.753906 L 41.746094 22.445312 C 41.726562 22.339844 41.6875 22.246094 41.648438 22.152344 C 41.527344 21.757812 41.308594 21.429688 41.054688 21.140625 C 40.796875 20.855469 40.480469 20.609375 40.117188 20.40625 C 39.753906 20.203125 39.359375 20.027344 38.933594 19.855469 C 39.386719 19.753906 39.863281 19.796875 40.316406 19.933594 Z M 37.515625 20.578125 C 37.796875 20.445312 38.09375 20.40625 38.390625 20.40625 C 38.6875 20.410156 38.984375 20.457031 39.273438 20.570312 C 39.554688 20.6875 39.832031 20.847656 40.042969 21.097656 C 40.25 21.339844 40.382812 21.65625 40.351562 21.96875 C 40.117188 21.757812 39.921875 21.609375 39.707031 21.484375 C 39.492188 21.363281 39.265625 21.273438 39.03125 21.179688 C 38.5625 20.984375 38.058594 20.84375 37.515625 20.578125 Z M 39.570312 11.476562 C 39.332031 11.621094 39.105469 11.761719 38.882812 11.917969 C 38.667969 12.082031 38.441406 12.234375 38.226562 12.417969 C 38 12.59375 37.785156 12.789062 37.511719 12.96875 C 37.546875 12.648438 37.667969 12.347656 37.839844 12.078125 C 38.007812 11.804688 38.246094 11.578125 38.507812 11.386719 C 38.773438 11.203125 39.074219 11.066406 39.390625 11 C 39.707031 10.933594 40.042969 10.925781 40.351562 11.046875 C 40.0625 11.191406 39.8125 11.328125 39.570312 11.476562 Z M 41.867188 10.628906 C 41.316406 10.503906 40.765625 10.464844 40.226562 10.527344 C 39.691406 10.59375 39.152344 10.722656 38.65625 10.988281 L 38.464844 11.078125 C 38.402344 11.109375 38.347656 11.152344 38.28125 11.1875 L 37.910156 11.410156 C 37.664062 11.566406 37.4375 11.757812 37.175781 11.914062 C 37.332031 11.660156 37.5 11.402344 37.695312 11.167969 C 37.917969 10.957031 38.117188 10.710938 38.390625 10.550781 C 38.890625 10.167969 39.515625 9.945312 40.152344 9.875 C 40.789062 9.800781 41.4375 9.90625 42.015625 10.140625 C 42.589844 10.375 43.121094 10.722656 43.511719 11.1875 C 42.964844 10.945312 42.417969 10.753906 41.867188 10.628906 Z M 23.332031 35.359375 C 22.636719 35.433594 21.945312 35.519531 21.257812 35.628906 C 20.914062 35.6875 20.566406 35.738281 20.226562 35.808594 C 19.878906 35.855469 19.539062 35.941406 19.191406 36 C 18.847656 36.0625 18.503906 36.144531 18.152344 36.203125 C 17.804688 36.269531 17.460938 36.351562 17.097656 36.402344 C 17.410156 36.21875 17.730469 36.054688 18.054688 35.902344 C 18.386719 35.769531 18.714844 35.613281 19.058594 35.511719 C 19.738281 35.269531 20.445312 35.113281 21.152344 34.988281 C 21.867188 34.886719 22.589844 34.824219 23.3125 34.855469 C 24.03125 34.882812 24.757812 34.972656 25.441406 35.222656 C 24.726562 35.238281 24.027344 35.292969 23.332031 35.359375 Z M 25.996094 34.316406 C 25.539062 34.269531 25.09375 34.253906 24.640625 34.238281 C 23.742188 34.203125 22.847656 34.238281 21.882812 34.265625 C 22.289062 33.988281 22.753906 33.828125 23.222656 33.722656 C 23.691406 33.613281 24.179688 33.566406 24.660156 33.585938 C 25.144531 33.597656 25.628906 33.671875 26.089844 33.816406 C 26.554688 33.949219 26.996094 34.164062 27.390625 34.441406 C 26.902344 34.417969 26.453125 34.347656 25.996094 34.316406 Z M 33.199219 37.164062 C 32.382812 37.164062 31.484375 37.0625 30.503906 36.820312 C 30.242188 36.757812 30.078125 36.492188 30.144531 36.230469 C 30.207031 35.96875 30.472656 35.808594 30.734375 35.871094 C 36.429688 37.265625 38.863281 33.652344 38.964844 33.5 C 39.113281 33.273438 39.414062 33.210938 39.640625 33.355469 C 39.867188 33.503906 39.929688 33.804688 39.789062 34.03125 C 39.765625 34.066406 37.710938 37.164062 33.199219 37.164062 Z M 42.386719 35.246094 C 42.152344 35.570312 41.875 35.859375 41.566406 36.105469 C 41.257812 36.359375 40.910156 36.570312 40.542969 36.722656 C 40.175781 36.882812 39.777344 36.976562 39.375 36.988281 C 39.6875 36.71875 39.992188 36.515625 40.285156 36.28125 C 40.582031 36.058594 40.871094 35.828125 41.148438 35.601562 C 41.726562 35.144531 42.265625 34.660156 42.90625 34.175781 C 42.808594 34.570312 42.613281 34.921875 42.386719 35.246094 Z M 42.554688 33.199219 C 42.398438 33.488281 42.210938 33.757812 41.996094 34.007812 C 41.78125 34.253906 41.542969 34.484375 41.269531 34.679688 C 40.996094 34.867188 40.695312 35.035156 40.351562 35.097656 C 40.539062 34.808594 40.726562 34.558594 40.914062 34.308594 C 41.109375 34.0625 41.296875 33.816406 41.503906 33.582031 C 41.914062 33.113281 42.339844 32.652344 42.90625 32.265625 C 42.84375 32.605469 42.707031 32.910156 42.554688 33.199219 Z M 54.667969 15.929688 C 55.5625 16.007812 56.460938 16.316406 57.210938 16.847656 C 57.960938 17.382812 58.546875 18.132812 58.910156 18.949219 C 59.277344 19.769531 59.464844 20.648438 59.476562 21.519531 C 59.195312 20.695312 58.878906 19.902344 58.457031 19.183594 C 58.355469 19.003906 58.230469 18.839844 58.117188 18.667969 C 57.992188 18.507812 57.878906 18.335938 57.734375 18.191406 C 57.46875 17.882812 57.167969 17.605469 56.835938 17.382812 C 56.183594 16.90625 55.40625 16.605469 54.597656 16.433594 C 53.78125 16.269531 52.929688 16.214844 52.058594 16.273438 C 52.871094 15.953125 53.773438 15.851562 54.667969 15.929688 Z M 52.707031 17.03125 C 53.128906 17.035156 53.550781 17.09375 53.960938 17.226562 C 54.367188 17.363281 54.757812 17.574219 55.085938 17.855469 C 55.410156 18.152344 55.664062 18.527344 55.765625 18.9375 C 55.429688 18.671875 55.125 18.453125 54.792969 18.273438 C 54.457031 18.105469 54.113281 17.96875 53.757812 17.847656 C 53.035156 17.613281 52.285156 17.460938 51.472656 17.242188 C 51.867188 17.085938 52.289062 17.039062 52.707031 17.03125 Z M 55.085938 19.855469 C 54.875 19.75 54.726562 19.65625 54.578125 19.5625 C 54.429688 19.476562 54.296875 19.382812 54.160156 19.28125 C 54.027344 19.183594 53.890625 19.082031 53.757812 18.957031 C 53.625 18.832031 53.492188 18.703125 53.355469 18.515625 C 53.574219 18.445312 53.785156 18.457031 53.984375 18.5 C 54.1875 18.546875 54.371094 18.632812 54.542969 18.753906 C 54.707031 18.871094 54.851562 19.035156 54.957031 19.21875 C 55.0625 19.410156 55.125 19.628906 55.085938 19.855469 Z M 69.058594 37.945312 C 65.292969 41.164062 61.503906 42.0625 58.4375 42.0625 C 54.578125 42.0625 51.871094 40.636719 51.820312 40.609375 C 51.582031 40.480469 51.492188 40.183594 51.625 39.945312 C 51.75 39.707031 52.050781 39.621094 52.289062 39.75 C 52.617188 39.929688 60.445312 44.023438 68.417969 37.203125 C 68.621094 37.027344 68.933594 37.050781 69.109375 37.253906 C 69.285156 37.457031 69.261719 37.769531 69.058594 37.945312 Z M 57.78125 37.539062 C 58.574219 37.496094 59.359375 37.429688 60.136719 37.304688 C 60.917969 37.195312 61.691406 37.042969 62.457031 36.847656 C 63.230469 36.667969 63.980469 36.410156 64.765625 36.179688 C 64.105469 36.648438 63.382812 37.054688 62.609375 37.332031 C 62.230469 37.496094 61.832031 37.589844 61.441406 37.710938 C 61.242188 37.765625 61.039062 37.800781 60.839844 37.84375 C 60.640625 37.886719 60.4375 37.925781 60.234375 37.949219 C 59.828125 38.007812 59.417969 38.042969 59.007812 38.066406 C 58.597656 38.070312 58.1875 38.082031 57.78125 38.046875 C 56.964844 37.992188 56.148438 37.859375 55.382812 37.570312 C 56.195312 37.589844 56.988281 37.582031 57.78125 37.539062 Z M 57.640625 36.402344 C 57.921875 36.320312 58.179688 36.277344 58.4375 36.246094 C 58.691406 36.210938 58.9375 36.191406 59.1875 36.183594 C 59.4375 36.167969 59.675781 36.164062 59.929688 36.164062 C 60.179688 36.164062 60.433594 36.160156 60.730469 36.183594 C 60.542969 36.410156 60.292969 36.5625 60.035156 36.664062 C 59.773438 36.761719 59.496094 36.820312 59.21875 36.835938 C 58.945312 36.847656 58.671875 36.820312 58.402344 36.757812 C 58.140625 36.679688 57.878906 36.582031 57.640625 36.402344 Z M 56.226562 38.757812 C 57.179688 38.785156 58.128906 38.789062 59.078125 38.730469 C 59.550781 38.699219 60.023438 38.679688 60.496094 38.621094 L 61.207031 38.554688 C 61.441406 38.519531 61.675781 38.488281 61.914062 38.460938 C 62.390625 38.40625 62.859375 38.316406 63.332031 38.246094 C 63.808594 38.175781 64.277344 38.070312 64.765625 38.007812 C 64.324219 38.207031 63.871094 38.398438 63.410156 38.558594 C 62.949219 38.699219 62.484375 38.859375 62.007812 38.957031 C 61.058594 39.199219 60.085938 39.3125 59.109375 39.378906 C 58.132812 39.425781 57.148438 39.390625 56.183594 39.257812 C 55.214844 39.125 54.25 38.910156 53.363281 38.507812 C 54.324219 38.652344 55.273438 38.71875 56.226562 38.757812 Z M 71.804688 31.058594 C 71.597656 31.230469 71.289062 31.203125 71.117188 31 C 70.960938 30.820312 67.339844 26.726562 60.066406 31.101562 C 59.898438 31.203125 59.695312 31.195312 59.535156 31.085938 C 59.375 30.976562 59.296875 30.78125 59.332031 30.59375 C 59.335938 30.5625 59.867188 27.546875 58.117188 25.339844 C 56.957031 23.875 55.046875 23.0625 52.449219 22.925781 C 47.988281 22.695312 45.617188 25.496094 45.246094 28.367188 C 44.957031 30.640625 45.945312 33.195312 48.816406 33.789062 C 52.015625 34.445312 53.972656 33.074219 54.492188 31.421875 C 54.898438 30.132812 54.449219 28.460938 52.527344 27.636719 C 51.226562 27.082031 50.113281 27.066406 49.46875 27.601562 C 49.089844 27.917969 48.929688 28.390625 49.042969 28.871094 C 49.183594 29.476562 49.714844 29.933594 50.503906 30.128906 C 50.769531 30.191406 50.929688 30.457031 50.863281 30.71875 C 50.796875 30.980469 50.53125 31.140625 50.273438 31.078125 C 49.128906 30.800781 48.3125 30.054688 48.085938 29.09375 C 47.894531 28.261719 48.179688 27.402344 48.835938 26.851562 C 49.773438 26.070312 51.261719 26.027344 52.914062 26.738281 C 55.03125 27.644531 56.0625 29.691406 55.425781 31.714844 C 54.882812 33.441406 53.15625 34.9375 50.402344 34.9375 C 49.851562 34.9375 49.253906 34.878906 48.617188 34.746094 C 45.152344 34.03125 43.9375 30.875 44.273438 28.246094 C 44.683594 25.03125 47.433594 21.6875 52.496094 21.953125 C 55.398438 22.101562 57.546875 23.042969 58.890625 24.742188 C 60.269531 26.488281 60.433594 28.585938 60.390625 29.792969 C 67.878906 25.777344 71.824219 30.324219 71.867188 30.371094 C 72.039062 30.574219 72.015625 30.882812 71.804688 31.058594 Z M 71.589844 26.230469 L 70.898438 25.734375 C 70.4375 25.394531 69.972656 25.054688 69.542969 24.5625 C 69.875 24.566406 70.175781 24.652344 70.46875 24.761719 C 70.757812 24.871094 71.03125 25.023438 71.285156 25.207031 C 71.539062 25.390625 71.773438 25.613281 71.960938 25.875 C 72.144531 26.140625 72.300781 26.460938 72.273438 26.796875 C 72.039062 26.5625 71.816406 26.402344 71.589844 26.230469 Z M 72.394531 25.085938 C 72.054688 24.773438 71.691406 24.492188 71.300781 24.242188 C 70.90625 23.996094 70.496094 23.769531 70.070312 23.558594 C 69.636719 23.351562 69.199219 23.148438 68.738281 22.941406 C 69.25 22.882812 69.757812 22.957031 70.246094 23.085938 C 70.734375 23.21875 71.214844 23.417969 71.65625 23.695312 C 72.09375 23.972656 72.476562 24.339844 72.785156 24.761719 C 73.09375 25.183594 73.273438 25.691406 73.328125 26.191406 C 73.015625 25.773438 72.734375 25.402344 72.394531 25.085938 Z M 73.703125 24.113281 C 73.1875 23.636719 72.617188 23.226562 71.976562 22.945312 C 71.351562 22.640625 70.675781 22.429688 69.976562 22.269531 C 69.277344 22.117188 68.5625 22.015625 67.820312 21.964844 C 68.539062 21.75 69.300781 21.707031 70.054688 21.769531 C 70.808594 21.832031 71.558594 22.03125 72.257812 22.355469 C 72.429688 22.449219 72.605469 22.527344 72.769531 22.628906 C 72.929688 22.738281 73.09375 22.84375 73.25 22.957031 C 73.402344 23.070312 73.539062 23.214844 73.683594 23.339844 C 73.753906 23.40625 73.828125 23.46875 73.894531 23.539062 L 74.074219 23.761719 C 74.589844 24.339844 74.890625 25.0625 75.078125 25.773438 C 74.632812 25.171875 74.238281 24.574219 73.703125 24.113281 Z M 77.609375 49.429688 C 77.910156 49.128906 78.273438 48.910156 78.648438 48.753906 C 79.023438 48.59375 79.417969 48.488281 79.8125 48.4375 C 80.210938 48.386719 80.613281 48.371094 81.015625 48.453125 C 80.289062 48.820312 79.582031 49.0625 78.902344 49.351562 C 78.5625 49.492188 78.238281 49.644531 77.933594 49.828125 C 77.625 50.011719 77.34375 50.21875 77.105469 50.554688 C 77.078125 50.136719 77.316406 49.726562 77.609375 49.429688 Z M 78.011719 50.753906 C 78.546875 50.347656 79.128906 50.003906 79.738281 49.734375 C 80.351562 49.464844 80.988281 49.257812 81.636719 49.109375 C 82.28125 48.964844 82.945312 48.871094 83.613281 48.890625 L 81.78125 49.597656 C 81.179688 49.832031 80.589844 50.078125 80.003906 50.332031 C 79.421875 50.59375 78.851562 50.871094 78.292969 51.179688 C 77.738281 51.496094 77.207031 51.84375 76.664062 52.234375 C 77.003906 51.660156 77.484375 51.167969 78.011719 50.753906 Z M 19.996094 95.886719 C 21.644531 95.886719 23.226562 95.277344 24.449219 94.171875 C 24.699219 93.964844 30.207031 89.535156 37.355469 91.40625 C 37.515625 91.449219 50.539062 95.246094 56.226562 88.589844 C 53.203125 89.777344 46.636719 91.699219 41.847656 88.394531 C 41.71875 88.304688 41.644531 88.164062 41.632812 88.015625 C 41.628906 87.863281 41.691406 87.714844 41.808594 87.617188 C 43.425781 86.261719 44.359375 84.269531 44.359375 82.164062 C 44.359375 78.238281 41.160156 75.042969 37.230469 75.042969 C 35.855469 75.042969 34.519531 75.4375 33.367188 76.183594 C 33.242188 76.261719 33.089844 76.285156 32.953125 76.238281 C 32.8125 76.191406 32.703125 76.085938 32.644531 75.949219 C 31.363281 72.703125 28.273438 70.605469 24.777344 70.605469 C 20.109375 70.605469 16.3125 74.394531 16.3125 79.054688 C 16.3125 79.230469 16.320312 79.40625 16.332031 79.582031 C 16.734375 77.371094 17.957031 74.699219 21.363281 73.535156 C 27.746094 71.355469 31.128906 76.515625 31.164062 76.566406 C 31.308594 76.796875 31.242188 77.097656 31.011719 77.242188 C 30.785156 77.386719 30.484375 77.320312 30.335938 77.09375 C 30.214844 76.902344 27.316406 72.53125 21.683594 74.460938 C 17.113281 76.023438 17.011719 80.601562 17.136719 82.269531 C 20.308594 81.148438 22.625 82.085938 24.039062 83.113281 C 25.890625 84.457031 26.382812 86.945312 25.160156 88.773438 C 24.335938 90.015625 22.960938 90.644531 21.082031 90.644531 C 20.808594 90.644531 20.589844 90.425781 20.589844 90.15625 C 20.589844 89.882812 20.808594 89.664062 21.082031 89.664062 C 22.613281 89.664062 23.710938 89.183594 24.34375 88.234375 C 25.273438 86.839844 24.886719 84.9375 23.460938 83.90625 C 22.164062 82.964844 19.980469 82.113281 16.929688 83.398438 C 14.730469 84.546875 13.363281 86.792969 13.363281 89.269531 C 13.367188 92.917969 16.339844 95.886719 19.996094 95.886719 Z M 41.054688 78.113281 C 41.3125 78.027344 41.589844 78.164062 41.675781 78.421875 C 41.683594 78.441406 41.855469 78.957031 41.984375 79.726562 C 42.027344 79.996094 41.847656 80.246094 41.582031 80.289062 C 41.554688 80.292969 41.527344 80.296875 41.5 80.296875 C 41.265625 80.296875 41.054688 80.125 41.015625 79.886719 C 40.902344 79.195312 40.75 78.734375 40.75 78.730469 C 40.660156 78.476562 40.800781 78.199219 41.054688 78.113281 Z M 41.015625 82.730469 C 41.070312 82.464844 41.328125 82.296875 41.59375 82.34375 C 41.859375 82.398438 42.03125 82.65625 41.980469 82.921875 C 41.59375 84.839844 40.246094 87.203125 36 87.5625 C 35.988281 87.5625 35.972656 87.5625 35.957031 87.5625 C 35.707031 87.5625 35.492188 87.367188 35.472656 87.113281 C 35.449219 86.84375 35.648438 86.609375 35.917969 86.585938 C 38.835938 86.339844 40.550781 85.042969 41.015625 82.730469 Z M 34.074219 81.105469 C 34.167969 80.875 34.242188 80.652344 34.300781 80.414062 C 34.414062 79.929688 34.464844 79.421875 34.601562 78.828125 C 34.796875 79.074219 34.898438 79.359375 34.953125 79.652344 C 35.003906 79.949219 35 80.261719 34.933594 80.5625 C 34.859375 80.867188 34.710938 81.164062 34.496094 81.398438 C 34.277344 81.632812 33.980469 81.785156 33.675781 81.820312 C 33.839844 81.550781 33.980469 81.339844 34.074219 81.105469 Z M 33.972656 83.378906 C 34.164062 83.234375 34.367188 83.117188 34.527344 82.953125 C 34.707031 82.8125 34.851562 82.636719 35 82.476562 C 35.121094 82.292969 35.257812 82.121094 35.351562 81.917969 C 35.554688 81.527344 35.699219 81.09375 35.789062 80.640625 C 35.878906 80.179688 35.929688 79.703125 35.957031 79.195312 C 36.195312 79.648438 36.292969 80.164062 36.296875 80.683594 C 36.296875 81.203125 36.183594 81.742188 35.929688 82.222656 C 35.8125 82.464844 35.640625 82.675781 35.460938 82.882812 C 35.257812 83.058594 35.066406 83.253906 34.824219 83.371094 C 34.601562 83.523438 34.34375 83.59375 34.101562 83.675781 C 33.855469 83.742188 33.59375 83.761719 33.34375 83.773438 C 33.554688 83.617188 33.777344 83.519531 33.972656 83.378906 Z M 33.570312 85.25 C 33.882812 85.085938 34.183594 84.894531 34.492188 84.730469 C 34.78125 84.535156 35.078125 84.355469 35.359375 84.148438 C 35.621094 83.929688 35.910156 83.738281 36.132812 83.488281 C 36.621094 83.023438 37.019531 82.476562 37.265625 81.851562 C 37.503906 81.230469 37.605469 80.53125 37.511719 79.808594 C 37.867188 80.453125 37.929688 81.257812 37.75 82.003906 C 37.714844 82.191406 37.636719 82.367188 37.570312 82.550781 C 37.496094 82.730469 37.394531 82.894531 37.308594 83.0625 C 37.21875 83.234375 37.082031 83.371094 36.972656 83.527344 C 36.859375 83.6875 36.71875 83.816406 36.589844 83.949219 C 36.324219 84.226562 36.011719 84.433594 35.707031 84.65625 C 35.554688 84.757812 35.382812 84.835938 35.21875 84.929688 C 35.058594 85.015625 34.898438 85.113281 34.722656 85.175781 C 34.382812 85.308594 34.039062 85.445312 33.6875 85.546875 C 33.328125 85.625 32.976562 85.710938 32.617188 85.765625 C 32.933594 85.578125 33.253906 85.414062 33.570312 85.25 Z M 30.847656 88.414062 C 31.1875 88.378906 31.53125 88.386719 31.867188 88.449219 C 32.199219 88.507812 32.523438 88.609375 32.832031 88.75 C 33.136719 88.894531 33.433594 89.070312 33.679688 89.324219 C 32.984375 89.308594 32.371094 89.195312 31.753906 89.089844 L 30.832031 88.929688 C 30.523438 88.871094 30.210938 88.824219 29.867188 88.742188 C 30.164062 88.554688 30.503906 88.457031 30.847656 88.414062 Z M 23.144531 78.421875 C 22.972656 78.480469 22.800781 78.523438 22.628906 78.5625 C 22.457031 78.597656 22.28125 78.613281 22.101562 78.621094 C 21.914062 78.625 21.722656 78.628906 21.496094 78.578125 C 21.734375 78.183594 22.117188 78 22.503906 77.917969 C 22.703125 77.878906 22.902344 77.875 23.105469 77.90625 C 23.304688 77.945312 23.511719 78.007812 23.6875 78.160156 C 23.496094 78.285156 23.320312 78.355469 23.144531 78.421875 Z M 24.683594 77.214844 C 24.390625 77.203125 24.105469 77.203125 23.820312 77.207031 C 23.53125 77.21875 23.242188 77.226562 22.941406 77.25 C 22.640625 77.257812 22.339844 77.292969 22 77.273438 C 22.238281 77.035156 22.523438 76.867188 22.832031 76.75 C 23.140625 76.628906 23.472656 76.570312 23.800781 76.558594 C 24.136719 76.554688 24.472656 76.601562 24.789062 76.71875 C 25.097656 76.835938 25.402344 77.003906 25.613281 77.277344 C 25.277344 77.242188 24.980469 77.222656 24.683594 77.214844 Z M 25.195312 76.125 C 24.652344 76.011719 24.105469 75.992188 23.558594 76.023438 L 23.144531 76.050781 L 22.734375 76.113281 C 22.453125 76.132812 22.1875 76.230469 21.90625 76.269531 C 21.632812 76.339844 21.359375 76.417969 21.074219 76.484375 C 20.796875 76.566406 20.519531 76.652344 20.222656 76.714844 C 20.449219 76.523438 20.695312 76.359375 20.945312 76.1875 C 21.207031 76.046875 21.472656 75.902344 21.75 75.785156 C 22.3125 75.570312 22.902344 75.390625 23.519531 75.367188 C 24.136719 75.332031 24.765625 75.410156 25.339844 75.632812 C 25.914062 75.855469 26.453125 76.207031 26.785156 76.714844 C 26.265625 76.417969 25.734375 76.238281 25.195312 76.125 Z M 18.433594 84.21875 C 18.921875 84.050781 19.449219 83.988281 19.964844 84.011719 C 20.484375 84.027344 20.996094 84.152344 21.46875 84.351562 C 21.941406 84.550781 22.382812 84.828125 22.722656 85.214844 C 21.765625 84.90625 20.863281 84.695312 19.933594 84.664062 C 19.472656 84.652344 19.007812 84.652344 18.542969 84.714844 C 18.070312 84.761719 17.609375 84.875 17.101562 84.953125 C 17.492188 84.625 17.941406 84.363281 18.433594 84.21875 Z M 16.722656 86.199219 C 16.972656 85.949219 17.285156 85.765625 17.613281 85.628906 C 17.949219 85.5 18.308594 85.445312 18.664062 85.460938 C 19.015625 85.480469 19.367188 85.566406 19.664062 85.769531 C 18.976562 85.890625 18.40625 86.023438 17.851562 86.238281 C 17.574219 86.351562 17.296875 86.464844 17.03125 86.617188 C 16.75 86.753906 16.484375 86.921875 16.160156 87.074219 C 16.273438 86.742188 16.46875 86.441406 16.722656 86.199219 Z M 15.640625 88.523438 C 15.707031 88.257812 15.847656 88.023438 16.011719 87.824219 C 16.171875 87.621094 16.375 87.453125 16.59375 87.324219 C 16.8125 87.195312 17.050781 87.09375 17.328125 87.074219 C 17.082031 87.554688 16.789062 87.894531 16.511719 88.238281 C 16.378906 88.40625 16.234375 88.566406 16.109375 88.738281 C 15.976562 88.914062 15.855469 89.085938 15.714844 89.328125 C 15.574219 89.082031 15.574219 88.785156 15.640625 88.523438 Z M 92.03125 45.175781 C 92.71875 44.378906 93.101562 43.582031 93.285156 43.128906 C 96.046875 43.289062 98.839844 43.902344 101.601562 44.964844 C 105.339844 46.402344 109.101562 46.953125 112.78125 46.59375 C 114.257812 46.449219 115.722656 46.1875 117.160156 45.820312 C 114.160156 47.222656 109.941406 48.613281 105.328125 48.371094 C 103.128906 48.257812 100.914062 47.636719 98.742188 46.53125 C 97.359375 45.824219 94.851562 44.851562 92.03125 45.175781 Z M 92.03125 45.175781 " fill-opacity="1" fill-rule="nonzero"/></g><path fill="#ffffff" d="M 67.746094 91.917969 C 60.078125 83.765625 55.382812 72.796875 55.382812 60.730469 C 55.382812 37.3125 73.074219 18.023438 95.84375 15.460938 C 85.476562 22.335938 78.640625 34.101562 78.640625 47.460938 C 78.640625 68.660156 95.851562 85.84375 117.082031 85.84375 C 127.863281 85.84375 137.605469 81.410156 144.585938 74.273438 C 138.90625 92.535156 122.03125 105.871094 101.980469 106.289062 C 100.835938 105.78125 99.570312 105.5 98.242188 105.5 C 97.910156 105.5 97.574219 105.519531 97.242188 105.554688 C 96.394531 100.675781 92.128906 97.058594 87.121094 97.058594 C 86.050781 97.058594 84.996094 97.222656 83.984375 97.546875 C 82.480469 93.195312 78.308594 90.199219 73.664062 90.199219 C 71.5 90.195312 69.464844 90.8125 67.746094 91.917969 Z M 67.746094 91.917969 " fill-opacity="1" fill-rule="nonzero"/><path fill="#ffffff" d="M 128.601562 97.628906 C 121.085938 103.242188 112.230469 106.375 102.882812 106.746094 C 102.175781 106.332031 101.40625 106.011719 100.59375 105.796875 C 100.730469 105.796875 100.867188 105.804688 101.003906 105.804688 C 120.21875 105.804688 137.039062 93.917969 143.476562 76.027344 C 136.269531 82.691406 126.972656 86.335938 117.078125 86.335938 C 95.613281 86.335938 78.148438 68.898438 78.148438 47.460938 C 78.148438 35.078125 84.003906 23.546875 93.914062 16.214844 C 72.085938 19.640625 55.867188 38.441406 55.867188 60.730469 C 55.867188 72.6875 60.554688 83.574219 68.195312 91.648438 C 67.90625 91.816406 67.625 91.996094 67.355469 92.183594 C 59.628906 83.945312 54.886719 72.878906 54.886719 60.726562 C 54.886719 37.265625 72.472656 17.597656 95.785156 14.972656 C 96.011719 14.949219 96.222656 15.082031 96.300781 15.292969 C 96.378906 15.503906 96.300781 15.742188 96.109375 15.867188 C 85.476562 22.921875 79.128906 34.726562 79.128906 47.457031 C 79.128906 68.351562 96.152344 85.351562 117.078125 85.351562 C 127.382812 85.351562 137.027344 81.292969 144.230469 73.929688 C 144.386719 73.765625 144.640625 73.730469 144.832031 73.851562 C 145.027344 73.964844 145.117188 74.199219 145.050781 74.414062 C 142.195312 83.59375 136.355469 91.839844 128.601562 97.628906 Z M 121.039062 62.484375 C 122.089844 62.484375 122.089844 60.851562 121.039062 60.851562 C 119.988281 60.851562 119.984375 62.484375 121.039062 62.484375 Z M 34.285156 134.488281 C 33.234375 134.488281 33.234375 136.117188 34.285156 136.117188 C 35.339844 136.117188 35.339844 134.488281 34.285156 134.488281 Z M 29.429688 52.113281 C 29.40625 52.003906 29.355469 51.914062 29.285156 51.835938 C 29.226562 51.746094 29.152344 51.675781 29.054688 51.625 C 28.960938 51.566406 28.859375 51.535156 28.75 51.527344 C 28.644531 51.503906 28.535156 51.507812 28.425781 51.542969 C 28.359375 51.566406 28.292969 51.597656 28.230469 51.621094 C 28.105469 51.695312 28.011719 51.792969 27.933594 51.917969 C 27.910156 51.980469 27.878906 52.046875 27.851562 52.113281 C 27.8125 52.257812 27.8125 52.402344 27.851562 52.546875 C 27.910156 52.710938 27.960938 52.878906 28.015625 53.046875 C 28.042969 53.15625 28.09375 53.246094 28.164062 53.324219 C 28.222656 53.414062 28.296875 53.484375 28.390625 53.535156 C 28.488281 53.59375 28.589844 53.625 28.695312 53.632812 C 28.804688 53.65625 28.910156 53.652344 29.023438 53.621094 C 29.089844 53.59375 29.152344 53.5625 29.21875 53.539062 C 29.34375 53.464844 29.4375 53.367188 29.511719 53.246094 C 29.539062 53.179688 29.570312 53.113281 29.59375 53.046875 C 29.632812 52.90625 29.632812 52.757812 29.59375 52.613281 C 29.539062 52.449219 29.488281 52.28125 29.429688 52.113281 Z M 105.246094 18.347656 L 110.605469 18.347656 L 112.121094 19.859375 L 112.121094 25.214844 C 112.121094 25.484375 112.34375 25.703125 112.613281 25.703125 C 112.882812 25.703125 113.101562 25.484375 113.101562 25.214844 L 113.101562 19.859375 L 114.617188 18.347656 L 119.980469 18.347656 C 120.25 18.347656 120.46875 18.128906 120.46875 17.855469 C 120.46875 17.585938 120.25 17.367188 119.980469 17.367188 L 114.617188 17.367188 L 113.101562 15.851562 L 113.101562 10.496094 C 113.101562 10.226562 112.882812 10.007812 112.613281 10.007812 C 112.34375 10.007812 112.121094 10.226562 112.121094 10.496094 L 112.121094 15.851562 L 110.605469 17.363281 L 105.246094 17.363281 C 104.976562 17.363281 104.753906 17.582031 104.753906 17.855469 C 104.753906 18.125 104.976562 18.347656 105.246094 18.347656 Z M 149.808594 21.277344 C 149.734375 21.199219 149.648438 21.140625 149.546875 21.105469 C 149.449219 21.054688 149.34375 21.03125 149.234375 21.035156 C 149.160156 21.042969 149.089844 21.054688 149.015625 21.0625 C 148.878906 21.101562 148.757812 21.171875 148.65625 21.273438 C 148.617188 21.328125 148.574219 21.382812 148.53125 21.4375 C 148.457031 21.566406 148.417969 21.703125 148.417969 21.851562 C 148.417969 21.933594 148.417969 22.015625 148.417969 22.101562 C 148.417969 22.210938 148.4375 22.320312 148.492188 22.414062 C 148.523438 22.515625 148.578125 22.605469 148.660156 22.675781 C 148.738281 22.753906 148.820312 22.8125 148.921875 22.84375 C 149.019531 22.898438 149.125 22.921875 149.234375 22.917969 C 149.308594 22.90625 149.378906 22.898438 149.453125 22.886719 C 149.589844 22.847656 149.710938 22.78125 149.8125 22.679688 C 149.855469 22.625 149.894531 22.566406 149.9375 22.511719 C 150.015625 22.386719 150.050781 22.25 150.050781 22.101562 C 150.050781 22.015625 150.050781 21.933594 150.050781 21.851562 C 150.054688 21.738281 150.03125 21.632812 149.976562 21.539062 C 149.945312 21.4375 149.890625 21.351562 149.808594 21.277344 Z M 144.726562 104.332031 C 143.675781 104.332031 143.675781 105.964844 144.726562 105.964844 C 145.777344 105.964844 145.78125 104.332031 144.726562 104.332031 Z M 47.132812 63.175781 L 42.949219 63.175781 L 42.039062 62.265625 L 42.039062 58.089844 C 42.039062 57.816406 41.820312 57.601562 41.546875 57.601562 C 41.277344 57.601562 41.058594 57.816406 41.058594 58.089844 L 41.058594 62.265625 L 40.148438 63.175781 L 35.964844 63.175781 C 35.695312 63.175781 35.476562 63.394531 35.476562 63.664062 C 35.476562 63.933594 35.695312 64.152344 35.964844 64.152344 L 40.148438 64.152344 L 41.058594 65.0625 L 41.058594 69.238281 C 41.058594 69.511719 41.277344 69.730469 41.546875 69.730469 C 41.820312 69.730469 42.039062 69.511719 42.039062 69.238281 L 42.039062 65.0625 L 42.949219 64.152344 L 47.132812 64.152344 C 47.402344 64.152344 47.621094 63.933594 47.621094 63.664062 C 47.621094 63.394531 47.398438 63.175781 47.132812 63.175781 Z M 159.195312 123.980469 C 159.15625 123.84375 159.085938 123.722656 158.984375 123.621094 C 158.929688 123.578125 158.875 123.535156 158.820312 123.492188 C 158.691406 123.417969 158.554688 123.382812 158.40625 123.382812 C 158.371094 123.382812 158.332031 123.382812 158.296875 123.382812 C 158.183594 123.378906 158.078125 123.402344 157.980469 123.453125 C 157.878906 123.488281 157.792969 123.542969 157.722656 123.625 C 157.640625 123.699219 157.582031 123.785156 157.550781 123.886719 C 157.5 123.984375 157.476562 124.085938 157.480469 124.199219 C 157.488281 124.269531 157.5 124.339844 157.507812 124.414062 C 157.546875 124.550781 157.617188 124.671875 157.71875 124.773438 C 157.773438 124.816406 157.828125 124.855469 157.882812 124.898438 C 158.011719 124.972656 158.148438 125.011719 158.296875 125.011719 C 158.332031 125.011719 158.371094 125.011719 158.40625 125.011719 C 158.519531 125.015625 158.625 124.992188 158.71875 124.9375 C 158.820312 124.90625 158.910156 124.851562 158.980469 124.769531 C 159.058594 124.695312 159.117188 124.609375 159.152344 124.507812 C 159.203125 124.410156 159.226562 124.304688 159.222656 124.195312 C 159.214844 124.125 159.203125 124.050781 159.195312 123.980469 Z M 142.390625 120.066406 L 139.089844 120.066406 L 138.628906 119.609375 L 138.628906 116.308594 C 138.628906 116.039062 138.410156 115.820312 138.136719 115.820312 C 137.867188 115.820312 137.648438 116.039062 137.648438 116.308594 L 137.648438 119.609375 L 137.1875 120.066406 L 133.882812 120.066406 C 133.613281 120.066406 133.394531 120.285156 133.394531 120.558594 C 133.394531 120.828125 133.613281 121.046875 133.882812 121.046875 L 137.1875 121.046875 L 137.648438 121.507812 L 137.648438 124.804688 C 137.648438 125.074219 137.867188 125.292969 138.136719 125.292969 C 138.410156 125.292969 138.628906 125.074219 138.628906 124.804688 L 138.628906 121.507812 L 139.089844 121.046875 L 142.390625 121.046875 C 142.664062 121.046875 142.882812 120.828125 142.882812 120.558594 C 142.882812 120.285156 142.664062 120.066406 142.390625 120.066406 Z M 142.390625 120.066406 " fill-opacity="1" fill-rule="nonzero"/><g clip-path="url(#902a8ac676)"><path fill="#ffffff" d="M 90.878906 102.921875 C 92.726562 104.269531 93.902344 106.429688 94.105469 108.851562 C 94.234375 110.367188 93.976562 111.828125 93.390625 113.089844 C 95.734375 112.003906 99.894531 111.179688 104.808594 115.0625 C 105.496094 115.335938 106.054688 115.652344 106.449219 115.910156 C 106.5 115.527344 106.53125 115.140625 106.53125 114.753906 C 106.53125 110.1875 102.8125 106.46875 98.238281 106.46875 C 97.796875 106.46875 97.347656 106.507812 96.90625 106.578125 C 96.773438 106.597656 96.640625 106.566406 96.53125 106.488281 C 96.425781 106.410156 96.355469 106.289062 96.339844 106.15625 C 95.761719 101.523438 91.796875 98.03125 87.117188 98.03125 C 86.113281 98.03125 85.128906 98.191406 84.1875 98.503906 C 84.21875 99.042969 84.230469 100.0625 84.007812 101.191406 C 85.320312 100.964844 88.042969 100.847656 90.878906 102.921875 Z M 100.027344 108.65625 C 100.773438 108.839844 101.488281 109.164062 102.128906 109.601562 C 102.457031 109.8125 102.738281 110.089844 103.019531 110.347656 C 103.265625 110.648438 103.542969 110.925781 103.726562 111.269531 C 104.15625 111.910156 104.394531 112.65625 104.523438 113.394531 C 104.136719 112.742188 103.789062 112.109375 103.3125 111.570312 C 103.097656 111.285156 102.832031 111.042969 102.585938 110.792969 C 102.3125 110.566406 102.058594 110.328125 101.753906 110.140625 C 101.179688 109.734375 100.542969 109.40625 99.871094 109.140625 C 99.199219 108.882812 98.5 108.675781 97.765625 108.519531 C 98.511719 108.402344 99.285156 108.472656 100.027344 108.65625 Z M 97.289062 109.617188 C 97.808594 109.628906 98.332031 109.714844 98.832031 109.882812 C 99.335938 110.042969 99.804688 110.316406 100.210938 110.648438 C 100.625 110.980469 100.941406 111.425781 101.140625 111.894531 C 100.71875 111.589844 100.34375 111.292969 99.917969 111.070312 C 99.496094 110.84375 99.070312 110.644531 98.617188 110.503906 C 98.167969 110.351562 97.707031 110.230469 97.230469 110.125 C 96.75 110.027344 96.269531 109.9375 95.757812 109.851562 C 96.25 109.671875 96.773438 109.613281 97.289062 109.617188 Z M 102.769531 128.539062 C 102.636719 128.65625 102.5 128.769531 102.351562 128.875 C 101.820312 129.246094 100.921875 129.703125 99.714844 129.703125 C 98.984375 129.703125 98.148438 129.535156 97.210938 129.078125 C 94.765625 127.886719 93.277344 125.746094 93.117188 123.203125 C 92.945312 120.378906 94.492188 117.546875 97.160156 115.816406 C 98.925781 114.667969 100.625 114.355469 102.105469 114.445312 C 96.230469 111.261719 92.054688 115.050781 92.007812 115.097656 C 91.816406 115.277344 91.511719 115.273438 91.320312 115.082031 C 91.136719 114.894531 91.136719 114.589844 91.320312 114.398438 C 92.625 113.0625 93.300781 111.019531 93.125 108.933594 C 92.945312 106.792969 91.917969 104.890625 90.300781 103.710938 C 87.335938 101.546875 84.5 102.054688 83.722656 102.253906 C 83.175781 103.878906 82.035156 105.507812 79.703125 106.117188 C 79.140625 106.265625 78.601562 106.332031 78.09375 106.332031 C 75.953125 106.332031 74.339844 105.140625 73.589844 103.738281 C 72.636719 101.964844 72.964844 99.988281 74.417969 98.699219 C 75.535156 97.710938 76.644531 97.265625 77.714844 97.382812 C 79.09375 97.53125 79.859375 98.566406 79.894531 98.609375 C 80.054688 98.828125 80.003906 99.132812 79.785156 99.292969 C 79.566406 99.453125 79.261719 99.402344 79.101562 99.183594 C 79.097656 99.179688 78.539062 98.449219 77.59375 98.351562 C 76.808594 98.273438 75.964844 98.636719 75.066406 99.429688 C 73.960938 100.410156 73.71875 101.914062 74.449219 103.277344 C 75.144531 104.574219 76.871094 105.847656 79.453125 105.167969 C 81.457031 104.644531 82.414062 103.226562 82.859375 101.8125 C 82.867188 101.738281 82.886719 101.675781 82.921875 101.613281 C 83.359375 100.0625 83.214844 98.558594 83.179688 98.269531 C 81.9375 94.085938 78.027344 91.167969 73.652344 91.167969 C 69.527344 91.167969 65.894531 93.648438 64.394531 97.488281 C 64.339844 97.628906 64.226562 97.734375 64.082031 97.777344 C 63.9375 97.824219 63.785156 97.800781 63.660156 97.714844 C 62.621094 97.003906 61.402344 96.625 60.140625 96.625 C 57.679688 96.625 55.449219 98.074219 54.445312 100.320312 C 54.125 101.183594 53.507812 103.617188 54.382812 104.777344 C 55.15625 105.804688 56.671875 106.40625 57.980469 106.203125 C 58.808594 106.074219 59.921875 105.570312 60.511719 103.894531 C 60.960938 102.613281 60.667969 101.648438 59.71875 101.316406 C 58.804688 100.992188 57.566406 101.382812 57.179688 102.472656 C 57.085938 102.726562 56.804688 102.863281 56.550781 102.769531 C 56.296875 102.679688 56.164062 102.402344 56.253906 102.144531 C 56.839844 100.5 58.683594 99.910156 60.042969 100.390625 C 61.167969 100.785156 62.203125 102.027344 61.433594 104.21875 C 60.847656 105.882812 59.675781 106.929688 58.128906 107.167969 C 57.90625 107.203125 57.679688 107.21875 57.453125 107.21875 C 55.976562 107.21875 54.457031 106.507812 53.59375 105.363281 C 52.410156 103.792969 53.167969 101.050781 53.441406 100.210938 C 51.542969 97.480469 48.453125 95.855469 45.121094 95.855469 C 40.078125 95.855469 35.765625 99.609375 35.085938 104.589844 C 35.078125 104.675781 34.984375 106.09375 35.882812 107.066406 C 36.496094 107.730469 37.453125 108.050781 38.71875 108.039062 C 40.804688 108.011719 42.769531 107.058594 43.621094 105.667969 C 43.960938 105.109375 44.257812 104.230469 43.738281 103.195312 C 43.425781 102.570312 43.03125 102.210938 42.574219 102.125 C 41.800781 101.980469 40.898438 102.628906 40.617188 102.890625 C 40.417969 103.074219 40.109375 103.0625 39.925781 102.867188 C 39.742188 102.667969 39.75 102.359375 39.949219 102.171875 C 40.003906 102.121094 41.328125 100.90625 42.746094 101.164062 C 43.523438 101.300781 44.152344 101.839844 44.613281 102.757812 C 45.171875 103.875 45.117188 105.089844 44.457031 106.175781 C 43.441406 107.84375 41.140625 108.984375 38.734375 109.019531 C 38.695312 109.019531 38.660156 109.019531 38.625 109.019531 C 37.113281 109.019531 35.945312 108.585938 35.15625 107.722656 C 34.410156 106.914062 34.183594 105.914062 34.121094 105.242188 C 27.921875 107.574219 19.382812 109.042969 11.617188 104.378906 C 13.855469 107.261719 19.414062 112.292969 30.738281 111.820312 C 30.746094 111.820312 30.757812 111.824219 30.769531 111.824219 C 30.78125 111.824219 30.789062 111.824219 30.804688 111.824219 C 30.808594 111.824219 30.816406 111.828125 30.828125 111.828125 C 30.84375 111.832031 30.863281 111.832031 30.878906 111.835938 C 30.894531 111.839844 30.910156 111.847656 30.925781 111.851562 C 30.941406 111.855469 30.957031 111.863281 30.972656 111.871094 C 30.988281 111.875 31.003906 111.886719 31.019531 111.894531 C 31.03125 111.90625 31.046875 111.910156 31.058594 111.921875 C 31.078125 111.9375 31.09375 111.953125 31.109375 111.96875 C 31.117188 111.976562 31.125 111.980469 31.128906 111.988281 C 31.128906 111.988281 31.128906 111.992188 31.132812 111.992188 C 31.15625 112.015625 31.175781 112.046875 31.191406 112.074219 C 31.195312 112.082031 31.199219 112.089844 31.203125 112.09375 C 31.214844 112.117188 31.226562 112.144531 31.230469 112.167969 C 31.234375 112.183594 31.238281 112.191406 31.238281 112.207031 C 31.242188 112.226562 31.246094 112.246094 31.246094 112.269531 C 31.246094 112.285156 31.246094 112.300781 31.246094 112.3125 C 31.246094 112.328125 31.246094 112.335938 31.246094 112.347656 C 31.078125 114.203125 32.414062 116.246094 34.566406 117.441406 C 36.910156 118.738281 39.464844 118.640625 41.40625 117.171875 C 45.339844 114.195312 50.910156 116.578125 51.148438 116.679688 C 51.363281 116.777344 51.480469 117.011719 51.429688 117.238281 C 51.375 117.46875 51.171875 117.628906 50.929688 117.617188 C 44.464844 117.347656 44.125 122.617188 44.117188 122.839844 L 44.113281 122.914062 C 44.113281 122.945312 44.109375 122.980469 44.109375 123.015625 C 44.109375 128.132812 48.28125 132.296875 53.40625 132.296875 C 54.824219 132.296875 56.183594 131.984375 57.453125 131.371094 C 57.773438 131.070312 59.667969 129.199219 59.519531 127.191406 C 59.441406 126.089844 58.746094 125.101562 57.460938 124.257812 C 54.9375 122.597656 53.066406 123.070312 52.15625 124.066406 C 51.261719 125.050781 51.199219 126.5 52.011719 127.511719 C 52.183594 127.726562 52.148438 128.03125 51.9375 128.199219 C 51.726562 128.371094 51.417969 128.335938 51.25 128.121094 C 50.132812 126.730469 50.210938 124.746094 51.429688 123.40625 C 52.613281 122.109375 54.960938 121.441406 58 123.4375 C 59.554688 124.460938 60.398438 125.703125 60.496094 127.125 C 60.652344 129.335938 58.949219 131.265625 58.296875 131.917969 C 59.714844 135.859375 63.429688 138.492188 67.644531 138.492188 C 68.78125 138.492188 69.878906 138.300781 70.925781 137.933594 C 67.191406 136.753906 65.953125 133.769531 66.078125 131.363281 C 66.234375 128.289062 68.648438 125.050781 72.953125 124.804688 C 76.300781 124.613281 77.488281 125.8125 77.902344 126.546875 C 78.417969 127.46875 78.300781 128.625 77.589844 129.644531 C 76.765625 130.832031 74.867188 132.066406 72.242188 131.660156 C 71.972656 131.617188 71.792969 131.367188 71.835938 131.101562 C 71.875 130.832031 72.125 130.652344 72.394531 130.695312 C 74.570312 131.03125 76.125 130.039062 76.785156 129.085938 C 77.277344 128.378906 77.375 127.609375 77.046875 127.023438 C 76.539062 126.113281 75.070312 125.664062 73.011719 125.78125 C 69.109375 126.003906 67.1875 128.855469 67.058594 131.410156 C 66.941406 133.703125 68.308594 136.628906 72.554688 137.3125 C 76.699219 137.980469 80.757812 136.394531 83.148438 133.167969 C 85.496094 130 85.726562 125.914062 83.777344 121.953125 C 79.480469 113.21875 69.9375 117.757812 69.53125 117.957031 C 69.464844 117.988281 69.394531 118.007812 69.320312 118.007812 C 69.320312 118.007812 69.320312 118.007812 69.316406 118.007812 C 69.3125 118.007812 69.308594 118.007812 69.304688 118.007812 C 69.273438 118.007812 69.238281 118 69.203125 117.992188 C 69.199219 117.988281 69.1875 117.988281 69.179688 117.988281 C 69.171875 117.984375 69.164062 117.984375 69.15625 117.980469 C 69.144531 117.976562 69.140625 117.96875 69.128906 117.964844 C 69.109375 117.953125 69.089844 117.949219 69.070312 117.9375 C 69.042969 117.921875 69.019531 117.902344 68.996094 117.882812 C 68.992188 117.878906 68.992188 117.878906 68.988281 117.875 C 68.9375 117.832031 68.902344 117.78125 68.878906 117.726562 C 68.867188 117.703125 67.734375 115.421875 65.386719 115.226562 C 63.097656 115.039062 62.230469 116.667969 62.191406 116.738281 C 62.070312 116.976562 61.773438 117.074219 61.535156 116.949219 C 61.292969 116.828125 61.199219 116.535156 61.316406 116.296875 C 61.363281 116.203125 62.503906 114.007812 65.464844 114.25 C 67.5 114.421875 68.757812 115.777344 69.351562 116.625 C 70.304688 115.433594 72.808594 112.988281 77.402344 112.886719 C 83.363281 112.765625 86 116.523438 86.109375 116.679688 C 86.265625 116.902344 86.207031 117.210938 85.984375 117.359375 C 85.761719 117.511719 85.457031 117.453125 85.304688 117.234375 C 85.207031 117.089844 82.835938 113.738281 77.425781 113.863281 C 74.136719 113.933594 72.035156 115.308594 70.878906 116.402344 C 74.148438 115.394531 81.109375 114.285156 84.667969 121.511719 C 86.78125 125.8125 86.519531 130.273438 83.945312 133.742188 C 81.730469 136.730469 78.207031 138.433594 74.433594 138.433594 C 74.410156 138.433594 74.378906 138.433594 74.351562 138.429688 C 75.703125 139.257812 77.027344 139.910156 78.316406 140.371094 C 78.570312 140.460938 78.703125 140.742188 78.609375 140.996094 C 78.539062 141.195312 78.347656 141.320312 78.148438 141.320312 C 78.09375 141.320312 78.039062 141.308594 77.984375 141.289062 C 76.625 140.804688 75.226562 140.117188 73.8125 139.246094 C 76.011719 142.734375 79.871094 144.90625 84.089844 144.90625 C 88.738281 144.90625 93.039062 142.199219 95.050781 138.011719 C 95.152344 137.808594 95.375 137.699219 95.597656 137.742188 C 97.890625 138.234375 100.207031 137.40625 101.675781 135.664062 C 101.679688 135.664062 101.679688 135.664062 101.679688 135.660156 C 104.019531 132.957031 103.257812 129.851562 102.769531 128.539062 Z M 25.226562 109.847656 C 24.703125 109.886719 24.179688 109.890625 23.660156 109.855469 C 23.140625 109.828125 22.621094 109.75 22.109375 109.640625 C 21.597656 109.535156 21.089844 109.378906 20.609375 109.148438 C 21.144531 109.113281 21.660156 109.125 22.171875 109.136719 C 22.683594 109.148438 23.195312 109.171875 23.703125 109.203125 C 24.214844 109.238281 24.722656 109.28125 25.238281 109.339844 C 25.75 109.394531 26.261719 109.464844 26.78125 109.578125 C 26.269531 109.734375 25.746094 109.808594 25.226562 109.847656 Z M 25.863281 108.753906 C 24.976562 108.734375 24.089844 108.660156 23.210938 108.535156 C 22.773438 108.472656 22.335938 108.386719 21.902344 108.308594 C 21.46875 108.207031 21.035156 108.109375 20.609375 107.980469 C 21.058594 107.964844 21.5 107.976562 21.941406 107.992188 C 22.382812 107.996094 22.820312 108.011719 23.257812 108.03125 C 24.132812 108.046875 25.003906 108.09375 25.875 108.101562 C 26.75 108.128906 27.621094 108.128906 28.492188 108.117188 C 29.367188 108.097656 30.238281 108.078125 31.121094 107.980469 C 30.300781 108.339844 29.410156 108.507812 28.53125 108.625 C 27.644531 108.742188 26.753906 108.765625 25.863281 108.753906 Z M 31.304688 109.542969 C 30.925781 109.617188 30.542969 109.644531 30.160156 109.625 C 29.777344 109.597656 29.390625 109.539062 29.03125 109.375 C 29.785156 109.171875 30.472656 109.042969 31.175781 108.902344 L 32.230469 108.703125 C 32.589844 108.644531 32.945312 108.566406 33.34375 108.539062 C 32.78125 109.082031 32.046875 109.390625 31.304688 109.542969 Z M 44.683594 99.253906 C 44.238281 99.207031 43.777344 99.1875 43.308594 99.183594 C 42.84375 99.175781 42.367188 99.171875 41.875 99.152344 C 42.308594 98.90625 42.785156 98.769531 43.265625 98.675781 C 43.75 98.585938 44.25 98.550781 44.75 98.605469 C 45.246094 98.65625 45.753906 98.773438 46.203125 99.035156 C 46.652344 99.285156 47.039062 99.675781 47.210938 100.140625 C 46.8125 99.835938 46.417969 99.640625 45.996094 99.5 C 45.582031 99.359375 45.132812 99.304688 44.683594 99.253906 Z M 47.058594 109.953125 C 47.457031 109.953125 47.855469 110.007812 48.234375 110.113281 C 48.613281 110.226562 48.984375 110.378906 49.300781 110.632812 C 48.503906 110.636719 47.789062 110.601562 47.058594 110.605469 C 46.695312 110.605469 46.332031 110.605469 45.960938 110.621094 C 45.589844 110.621094 45.222656 110.652344 44.816406 110.632812 C 45.460938 110.152344 46.269531 109.953125 47.058594 109.953125 Z M 42.964844 111.917969 C 43.496094 111.660156 44.0625 111.476562 44.640625 111.351562 C 45.21875 111.222656 45.808594 111.171875 46.398438 111.183594 C 46.984375 111.199219 47.578125 111.273438 48.132812 111.476562 C 46.96875 111.605469 45.867188 111.75 44.773438 111.988281 C 44.226562 112.105469 43.683594 112.230469 43.144531 112.390625 C 42.601562 112.539062 42.070312 112.730469 41.5 112.886719 C 41.933594 112.496094 42.429688 112.164062 42.964844 111.917969 Z M 46.28125 113.1875 C 45.632812 113.277344 44.996094 113.410156 44.382812 113.632812 C 44.074219 113.730469 43.78125 113.871094 43.480469 113.988281 L 42.625 114.453125 C 41.449219 115.136719 40.132812 115.691406 38.726562 115.769531 C 38.027344 115.808594 37.304688 115.710938 36.667969 115.414062 C 36.03125 115.117188 35.507812 114.625 35.144531 114.0625 C 35.621094 114.539062 36.171875 114.921875 36.785156 115.117188 C 37.394531 115.316406 38.046875 115.34375 38.679688 115.265625 C 39.316406 115.179688 39.941406 115.003906 40.546875 114.761719 C 41.152344 114.527344 41.726562 114.230469 42.296875 113.894531 L 43.21875 113.414062 C 43.542969 113.292969 43.855469 113.136719 44.195312 113.054688 C 44.859375 112.847656 45.542969 112.722656 46.230469 112.6875 C 47.601562 112.605469 48.996094 112.824219 50.21875 113.394531 C 48.914062 113.078125 47.574219 113.019531 46.28125 113.1875 Z M 50.636719 101.097656 L 50.488281 100.863281 C 50.4375 100.785156 50.371094 100.71875 50.3125 100.648438 L 49.964844 100.226562 L 49.574219 99.851562 C 49.449219 99.71875 49.300781 99.617188 49.15625 99.511719 C 49.011719 99.40625 48.882812 99.285156 48.71875 99.203125 L 48.261719 98.929688 L 47.777344 98.710938 C 47.117188 98.425781 46.417969 98.234375 45.695312 98.097656 C 44.972656 97.972656 44.230469 97.890625 43.46875 97.855469 C 44.203125 97.621094 44.980469 97.558594 45.753906 97.597656 C 46.527344 97.636719 47.300781 97.808594 48.035156 98.109375 C 48.765625 98.414062 49.425781 98.902344 49.941406 99.496094 C 50.0625 99.652344 50.191406 99.800781 50.304688 99.957031 L 50.585938 100.472656 C 50.628906 100.5625 50.679688 100.644531 50.710938 100.734375 L 50.804688 101.011719 C 50.863281 101.195312 50.917969 101.382812 50.964844 101.5625 C 50.847656 101.410156 50.738281 101.253906 50.636719 101.097656 Z M 48.003906 123.203125 C 47.882812 123.515625 47.785156 123.839844 47.722656 124.191406 C 47.683594 124.363281 47.671875 124.546875 47.636719 124.730469 C 47.613281 124.914062 47.597656 125.105469 47.554688 125.304688 C 47.457031 125.132812 47.382812 124.945312 47.316406 124.757812 C 47.277344 124.5625 47.21875 124.367188 47.210938 124.164062 C 47.179688 123.757812 47.25 123.335938 47.402344 122.945312 C 47.570312 122.558594 47.835938 122.210938 48.171875 121.964844 C 48.503906 121.71875 48.894531 121.550781 49.300781 121.550781 C 48.691406 122.0625 48.269531 122.589844 48.003906 123.203125 Z M 49.195312 120.519531 C 48.644531 120.746094 48.136719 121.042969 47.722656 121.429688 C 47.308594 121.816406 47 122.296875 46.804688 122.847656 C 46.617188 123.398438 46.527344 124.003906 46.464844 124.640625 C 46.257812 124.039062 46.195312 123.375 46.3125 122.71875 C 46.371094 122.386719 46.488281 122.066406 46.648438 121.761719 C 46.816406 121.460938 47.03125 121.1875 47.277344 120.953125 C 47.777344 120.480469 48.410156 120.1875 49.042969 120.03125 C 49.679688 119.878906 50.335938 119.84375 50.964844 119.972656 C 50.339844 120.117188 49.75 120.289062 49.195312 120.519531 Z M 50.910156 118.980469 C 50.304688 119.023438 49.714844 119.121094 49.140625 119.273438 C 48.851562 119.339844 48.578125 119.453125 48.296875 119.550781 C 48.027344 119.671875 47.746094 119.78125 47.492188 119.933594 C 46.953125 120.207031 46.484375 120.59375 45.964844 120.972656 C 46.273438 120.421875 46.679688 119.890625 47.214844 119.507812 C 47.460938 119.285156 47.761719 119.152344 48.046875 118.980469 C 48.347656 118.851562 48.652344 118.71875 48.976562 118.640625 C 49.609375 118.46875 50.273438 118.417969 50.917969 118.46875 C 51.5625 118.523438 52.203125 118.675781 52.769531 118.972656 C 52.128906 118.941406 51.515625 118.941406 50.910156 118.980469 Z M 72.910156 119.976562 C 73.441406 119.699219 74.03125 119.550781 74.625 119.472656 C 75.222656 119.402344 75.832031 119.414062 76.4375 119.523438 C 77.042969 119.632812 77.625 119.875 78.136719 120.214844 C 78.65625 120.546875 79.058594 121.035156 79.332031 121.5625 C 78.84375 121.210938 78.394531 120.878906 77.882812 120.660156 C 77.378906 120.4375 76.855469 120.269531 76.3125 120.164062 C 75.222656 119.953125 74.09375 119.945312 72.910156 119.976562 Z M 77.660156 122.160156 C 77.351562 121.988281 77.035156 121.847656 76.722656 121.707031 C 76.085938 121.425781 75.4375 121.214844 74.703125 120.976562 C 75.070312 120.824219 75.464844 120.796875 75.851562 120.824219 C 76.242188 120.855469 76.625 120.949219 76.984375 121.109375 C 77.699219 121.417969 78.328125 121.964844 78.636719 122.683594 C 78.277344 122.511719 77.976562 122.316406 77.660156 122.160156 Z M 76.984375 132 C 77.089844 131.878906 77.195312 131.761719 77.300781 131.648438 C 77.5 131.414062 77.703125 131.203125 77.882812 130.96875 C 78.0625 130.738281 78.230469 130.503906 78.378906 130.25 C 78.527344 129.996094 78.664062 129.726562 78.773438 129.402344 C 78.9375 129.71875 78.929688 130.089844 78.855469 130.433594 C 78.777344 130.777344 78.605469 131.097656 78.394531 131.371094 C 78.183594 131.652344 77.90625 131.867188 77.625 132.046875 C 77.476562 132.136719 77.320312 132.199219 77.164062 132.265625 C 77.003906 132.316406 76.839844 132.363281 76.664062 132.386719 C 76.765625 132.238281 76.878906 132.121094 76.984375 132 Z M 82.554688 128.636719 C 82.582031 129.574219 82.363281 130.523438 81.976562 131.394531 C 81.871094 131.609375 81.773438 131.828125 81.648438 132.035156 C 81.515625 132.238281 81.394531 132.441406 81.257812 132.640625 C 81.109375 132.832031 80.953125 133.015625 80.796875 133.203125 C 80.636719 133.382812 80.457031 133.542969 80.28125 133.710938 C 80.113281 133.886719 79.902344 134.011719 79.710938 134.15625 C 79.515625 134.300781 79.320312 134.449219 79.101562 134.550781 L 78.460938 134.882812 C 78.238281 134.96875 78.011719 135.046875 77.785156 135.128906 L 77.449219 135.246094 C 77.332031 135.269531 77.21875 135.296875 77.101562 135.320312 L 76.402344 135.453125 C 75.929688 135.503906 75.457031 135.515625 74.992188 135.519531 C 75.445312 135.371094 75.894531 135.277344 76.328125 135.140625 L 76.972656 134.910156 L 77.292969 134.796875 L 77.601562 134.652344 C 77.804688 134.554688 78.003906 134.457031 78.210938 134.367188 L 78.78125 134.019531 C 78.980469 133.914062 79.15625 133.777344 79.332031 133.640625 C 79.503906 133.503906 79.695312 133.382812 79.84375 133.21875 C 80.519531 132.644531 81.066406 131.929688 81.519531 131.15625 C 81.972656 130.386719 82.316406 129.539062 82.554688 128.636719 Z M 80.171875 130.074219 C 80.589844 129.027344 80.816406 127.894531 81.082031 126.722656 C 81.222656 127.3125 81.238281 127.921875 81.183594 128.527344 C 81.128906 129.128906 81.011719 129.738281 80.777344 130.3125 C 80.550781 130.886719 80.226562 131.4375 79.777344 131.882812 C 79.320312 132.320312 78.742188 132.628906 78.144531 132.71875 C 78.648438 132.371094 79.058594 131.988281 79.390625 131.546875 C 79.71875 131.09375 79.957031 130.59375 80.171875 130.074219 Z M 72.199219 118.582031 C 72.988281 118.242188 73.847656 118.039062 74.71875 117.996094 C 74.9375 118 75.15625 117.984375 75.375 118.003906 L 76.027344 118.078125 C 76.246094 118.117188 76.453125 118.183594 76.664062 118.238281 C 76.769531 118.265625 76.878906 118.289062 76.980469 118.328125 L 77.277344 118.460938 C 78.089844 118.777344 78.765625 119.355469 79.332031 119.96875 C 78.585938 119.5625 77.882812 119.144531 77.101562 118.9375 C 76.335938 118.710938 75.539062 118.589844 74.746094 118.640625 C 73.949219 118.667969 73.15625 118.824219 72.375 119.054688 C 71.597656 119.292969 70.832031 119.59375 70.074219 119.964844 C 70.675781 119.378906 71.414062 118.925781 72.199219 118.582031 Z M 63.6875 129.871094 C 63.800781 129.417969 63.992188 128.976562 64.316406 128.636719 C 64.164062 129.539062 64.148438 130.363281 64.246094 131.195312 C 64.308594 131.605469 64.367188 132.019531 64.476562 132.4375 C 64.496094 132.542969 64.527344 132.644531 64.558594 132.75 L 64.644531 133.066406 C 64.699219 133.28125 64.773438 133.484375 64.816406 133.722656 C 64.648438 133.5625 64.496094 133.390625 64.351562 133.207031 C 64.230469 133.011719 64.089844 132.824219 63.996094 132.613281 C 63.785156 132.199219 63.660156 131.742188 63.59375 131.273438 C 63.542969 130.804688 63.570312 130.324219 63.6875 129.871094 Z M 62.589844 128.453125 C 62.722656 128.015625 62.917969 127.585938 63.230469 127.242188 C 63.101562 128.140625 63.050781 128.964844 63.058594 129.804688 C 63.074219 130.222656 63.082031 130.644531 63.125 131.070312 C 63.132812 131.289062 63.167969 131.5 63.179688 131.71875 C 63.195312 131.9375 63.230469 132.15625 63.230469 132.390625 C 62.957031 132.019531 62.75 131.605469 62.625 131.167969 C 62.480469 130.734375 62.417969 130.277344 62.40625 129.816406 C 62.398438 129.351562 62.464844 128.894531 62.589844 128.453125 Z M 61.542969 127.765625 C 61.597656 127.488281 61.695312 127.230469 61.832031 126.984375 C 61.972656 126.742188 62.148438 126.515625 62.398438 126.351562 C 62.386719 126.644531 62.351562 126.902344 62.316406 127.15625 C 62.277344 127.410156 62.230469 127.652344 62.183594 127.898438 C 62.132812 128.140625 62.074219 128.378906 62.011719 128.628906 C 61.941406 128.875 61.882812 129.128906 61.757812 129.402344 C 61.460938 128.894531 61.433594 128.304688 61.542969 127.765625 Z M 75.21875 94.535156 C 74.71875 94.632812 74.230469 94.734375 73.742188 94.851562 C 73.257812 94.976562 72.78125 95.113281 72.3125 95.28125 C 71.839844 95.457031 71.390625 95.664062 70.910156 95.902344 C 71.207031 95.460938 71.628906 95.097656 72.09375 94.820312 C 72.558594 94.554688 73.066406 94.351562 73.589844 94.21875 C 74.109375 94.097656 74.644531 94.035156 75.171875 94.03125 C 75.703125 94.03125 76.238281 94.078125 76.746094 94.238281 C 76.222656 94.347656 75.71875 94.4375 75.21875 94.535156 Z M 68.699219 94.890625 C 69.316406 94.257812 70.097656 93.808594 70.910156 93.496094 C 71.117188 93.425781 71.316406 93.339844 71.53125 93.285156 L 72.164062 93.132812 C 72.375 93.078125 72.59375 93.0625 72.804688 93.035156 C 73.015625 93.007812 73.230469 92.988281 73.449219 92.96875 C 73.878906 92.960938 74.308594 92.960938 74.730469 92.976562 C 75.15625 93.027344 75.582031 93.074219 75.996094 93.152344 C 75.570312 93.222656 75.152344 93.257812 74.738281 93.296875 C 74.324219 93.351562 73.914062 93.421875 73.503906 93.472656 C 72.695312 93.644531 71.890625 93.792969 71.140625 94.105469 C 70.386719 94.386719 69.667969 94.765625 69.039062 95.269531 C 68.421875 95.78125 67.863281 96.394531 67.484375 97.152344 C 67.605469 96.300781 68.089844 95.519531 68.699219 94.890625 Z M 68.769531 112.5 C 68.539062 112.773438 68.347656 113.074219 68.15625 113.390625 C 68.210938 113.023438 68.335938 112.664062 68.5 112.324219 C 68.679688 111.988281 68.898438 111.671875 69.15625 111.390625 C 69.667969 110.820312 70.304688 110.382812 70.976562 110.039062 C 71.65625 109.703125 72.371094 109.464844 73.101562 109.316406 C 73.832031 109.164062 74.574219 109.085938 75.316406 109.144531 C 74.609375 109.355469 73.914062 109.570312 73.238281 109.804688 C 72.566406 110.050781 71.898438 110.300781 71.273438 110.625 C 70.636719 110.933594 70.046875 111.308594 69.511719 111.753906 C 69.246094 111.984375 68.996094 112.226562 68.769531 112.5 Z M 74.648438 110.894531 C 73.96875 111.027344 73.3125 111.207031 72.679688 111.464844 C 72.042969 111.699219 71.453125 112.039062 70.894531 112.429688 C 70.316406 112.808594 69.839844 113.3125 69.320312 113.8125 C 69.613281 113.164062 70.011719 112.523438 70.570312 112.039062 L 70.769531 111.847656 C 70.839844 111.789062 70.914062 111.734375 70.992188 111.679688 C 71.140625 111.574219 71.289062 111.457031 71.445312 111.355469 C 71.769531 111.175781 72.09375 110.996094 72.4375 110.863281 C 73.128906 110.59375 73.855469 110.429688 74.589844 110.394531 C 75.316406 110.359375 76.050781 110.417969 76.746094 110.640625 C 76.027344 110.683594 75.332031 110.765625 74.648438 110.894531 Z M 90.773438 106.894531 C 91.164062 107.476562 91.449219 108.15625 91.539062 108.871094 C 91.578125 109.046875 91.574219 109.226562 91.585938 109.40625 C 91.59375 109.585938 91.601562 109.765625 91.574219 109.941406 L 91.511719 110.46875 C 91.472656 110.644531 91.425781 110.8125 91.378906 110.980469 L 91.304688 111.238281 L 91.203125 111.476562 L 90.992188 111.953125 C 90.820312 112.257812 90.625 112.542969 90.421875 112.820312 C 90.5 112.480469 90.609375 112.164062 90.691406 111.839844 L 90.796875 111.355469 C 90.8125 111.273438 90.832031 111.195312 90.851562 111.117188 L 90.878906 110.875 C 90.898438 110.714844 90.921875 110.554688 90.945312 110.394531 L 90.957031 109.914062 C 90.96875 109.753906 90.957031 109.597656 90.941406 109.4375 C 90.921875 109.28125 90.933594 109.121094 90.894531 108.96875 C 90.8125 108.34375 90.613281 107.734375 90.332031 107.152344 C 90.050781 106.566406 89.6875 106.015625 89.253906 105.488281 C 89.863281 105.808594 90.382812 106.308594 90.773438 106.894531 Z M 85.25 104.984375 C 85.941406 104.914062 86.65625 105.042969 87.308594 105.324219 C 87.960938 105.605469 88.566406 106.042969 89.011719 106.621094 C 89.140625 106.75 89.21875 106.917969 89.320312 107.066406 L 89.460938 107.300781 C 89.503906 107.378906 89.539062 107.460938 89.574219 107.542969 C 89.640625 107.710938 89.71875 107.875 89.773438 108.042969 C 89.820312 108.214844 89.863281 108.386719 89.902344 108.558594 C 89.953125 108.726562 89.972656 108.902344 89.980469 109.082031 L 90.019531 109.601562 C 90.003906 109.953125 89.972656 110.296875 89.921875 110.636719 C 89.824219 110.300781 89.773438 109.96875 89.699219 109.640625 L 89.5625 109.160156 C 89.539062 109.082031 89.519531 109 89.5 108.921875 C 89.476562 108.84375 89.441406 108.769531 89.410156 108.695312 C 89.347656 108.546875 89.289062 108.394531 89.238281 108.242188 C 89.171875 108.09375 89.089844 107.957031 89.019531 107.8125 L 88.910156 107.601562 L 88.777344 107.40625 C 88.683594 107.28125 88.617188 107.132812 88.503906 107.023438 C 88.117188 106.523438 87.625 106.113281 87.078125 105.773438 C 86.527344 105.4375 85.910156 105.183594 85.25 104.984375 Z M 88.53125 132.09375 C 88.863281 131.1875 89.039062 130.222656 89.257812 129.207031 C 89.417969 129.707031 89.460938 130.234375 89.441406 130.757812 C 89.414062 131.28125 89.332031 131.8125 89.144531 132.316406 C 88.964844 132.816406 88.683594 133.296875 88.308594 133.695312 C 87.925781 134.082031 87.433594 134.363281 86.921875 134.46875 C 87.320312 134.117188 87.644531 133.769531 87.914062 133.375 C 88.164062 132.96875 88.363281 132.542969 88.53125 132.09375 Z M 86.921875 107.808594 C 87.308594 107.949219 87.644531 108.199219 87.933594 108.488281 C 88.222656 108.777344 88.464844 109.121094 88.640625 109.492188 C 88.824219 109.863281 88.929688 110.273438 88.957031 110.6875 C 88.992188 111.101562 88.914062 111.519531 88.757812 111.894531 C 88.644531 111.496094 88.582031 111.132812 88.453125 110.78125 C 88.34375 110.433594 88.210938 110.097656 88.050781 109.773438 C 87.742188 109.113281 87.347656 108.5 86.921875 107.808594 Z M 85.769531 133.085938 C 85.921875 132.878906 86.058594 132.671875 86.207031 132.460938 C 86.507812 132.039062 86.789062 131.605469 87.21875 131.179688 C 87.257812 131.484375 87.203125 131.773438 87.125 132.050781 C 87.039062 132.328125 86.914062 132.59375 86.746094 132.832031 C 86.574219 133.070312 86.367188 133.292969 86.117188 133.464844 C 85.863281 133.625 85.5625 133.742188 85.253906 133.722656 C 85.457031 133.484375 85.613281 133.289062 85.769531 133.085938 Z M 85.199219 137.367188 L 85.695312 137.125 C 85.859375 137.046875 86.027344 136.980469 86.183594 136.882812 C 86.339844 136.789062 86.496094 136.699219 86.652344 136.613281 C 86.8125 136.53125 86.949219 136.414062 87.101562 136.316406 C 87.40625 136.132812 87.671875 135.894531 87.949219 135.671875 C 88.484375 135.203125 88.945312 134.660156 89.339844 134.058594 C 89.726562 133.457031 90.046875 132.800781 90.265625 132.078125 C 90.316406 132.839844 90.117188 133.609375 89.78125 134.304688 C 89.453125 135.007812 88.960938 135.632812 88.386719 136.15625 C 87.785156 136.652344 87.121094 137.078125 86.394531 137.34375 C 86.042969 137.496094 85.660156 137.566406 85.296875 137.671875 C 84.921875 137.738281 84.542969 137.78125 84.167969 137.808594 C 84.511719 137.640625 84.863281 137.515625 85.199219 137.367188 Z M 94.027344 135.761719 C 93.992188 135.828125 90.320312 142.25 82.996094 142.25 C 82.847656 142.25 82.695312 142.246094 82.539062 142.238281 C 82.269531 142.230469 82.058594 142 82.070312 141.734375 C 82.078125 141.460938 82.3125 141.242188 82.574219 141.261719 C 89.589844 141.507812 93.136719 135.351562 93.175781 135.289062 C 93.304688 135.054688 93.605469 134.96875 93.839844 135.101562 C 94.074219 135.226562 94.15625 135.523438 94.027344 135.761719 Z M 95.765625 134.945312 C 95.929688 134.828125 96.097656 134.75 96.253906 134.65625 C 96.410156 134.554688 96.570312 134.476562 96.714844 134.378906 C 97.015625 134.199219 97.28125 133.992188 97.53125 133.777344 C 98.019531 133.328125 98.402344 132.789062 98.710938 132.078125 C 98.824219 132.457031 98.777344 132.871094 98.644531 133.25 C 98.507812 133.632812 98.273438 133.980469 97.972656 134.257812 C 97.667969 134.527344 97.308594 134.734375 96.929688 134.847656 C 96.742188 134.910156 96.539062 134.929688 96.351562 134.960938 C 96.152344 134.972656 95.957031 134.96875 95.765625 134.945312 Z M 100.808594 132.746094 C 100.671875 133.371094 100.363281 133.960938 99.945312 134.449219 C 99.53125 134.941406 98.996094 135.304688 98.445312 135.597656 C 98.167969 135.738281 97.871094 135.839844 97.585938 135.945312 C 97.28125 136.019531 96.984375 136.089844 96.679688 136.132812 C 96.933594 135.953125 97.195312 135.800781 97.449219 135.652344 C 97.695312 135.480469 97.945312 135.324219 98.183594 135.160156 C 98.402344 134.96875 98.65625 134.828125 98.851562 134.617188 C 98.953125 134.519531 99.066406 134.433594 99.164062 134.332031 L 99.449219 134.019531 C 99.808594 133.59375 100.113281 133.125 100.320312 132.59375 C 100.523438 132.070312 100.65625 131.5 100.683594 130.890625 C 100.925781 131.464844 100.945312 132.125 100.808594 132.746094 Z M 131.707031 139.070312 C 137.71875 144.371094 144.695312 139.265625 144.988281 139.046875 C 150.328125 135.113281 154.386719 137.097656 155.882812 138.132812 C 156.667969 138.675781 157.527344 138.957031 158.375 138.949219 C 159.617188 138.929688 160.476562 138.511719 161.050781 138.03125 C 160.558594 138.136719 160.050781 138.144531 159.542969 138.058594 C 158.417969 137.871094 157.4375 137.210938 156.851562 136.253906 C 155.914062 134.710938 153.976562 133.550781 151.792969 133.21875 C 149.277344 132.835938 146.804688 133.585938 144.828125 135.332031 C 144.722656 135.429688 144.609375 135.523438 144.503906 135.613281 C 142.328125 137.710938 140.027344 138.425781 137.90625 138.425781 C 136.171875 138.425781 134.558594 137.949219 133.226562 137.359375 C 131.167969 136.449219 129.382812 134.867188 128.066406 132.78125 C 124.757812 127.546875 119.375 127.003906 115.445312 127.472656 C 114.035156 127.644531 112.597656 128.113281 111.175781 128.875 C 108.167969 130.492188 105.433594 129.640625 103.898438 128.855469 C 104.285156 130.195312 104.574219 132.316406 103.609375 134.460938 C 105.867188 133.5 109.300781 133.085938 113.460938 133.3125 C 113.601562 133.320312 113.730469 133.386719 113.816406 133.492188 C 113.902344 133.601562 113.9375 133.738281 113.917969 133.875 C 113.878906 134.152344 113.855469 134.421875 113.855469 134.683594 C 113.855469 138.058594 117.054688 140.804688 120.984375 140.804688 C 123.851562 140.804688 126.417969 139.34375 127.542969 137.078125 C 127.601562 136.851562 127.871094 135.609375 127.140625 134.5625 C 126.457031 133.578125 125.089844 133.011719 123.082031 132.878906 C 121.125 132.753906 119.910156 133.308594 119.820312 134.367188 C 119.75 135.179688 120.4375 136.207031 121.425781 136.308594 C 121.691406 136.335938 121.886719 136.574219 121.863281 136.847656 C 121.832031 137.113281 121.59375 137.304688 121.324219 137.285156 C 119.878906 137.132812 118.722656 135.734375 118.84375 134.285156 C 118.949219 133.007812 120.136719 131.707031 123.144531 131.902344 C 125.472656 132.054688 127.089844 132.765625 127.953125 134.015625 C 128.726562 135.136719 128.660156 136.371094 128.558594 136.992188 C 129.8125 137.640625 130.867188 138.335938 131.707031 139.070312 Z M 146.476562 136.488281 C 146.785156 136.273438 147.082031 136.019531 147.429688 135.851562 C 148.089844 135.449219 148.835938 135.210938 149.589844 135.03125 C 150.347656 134.871094 151.132812 134.84375 151.898438 134.933594 C 152.660156 135.027344 153.417969 135.238281 154.070312 135.632812 C 153.328125 135.492188 152.59375 135.4375 151.871094 135.441406 C 151.507812 135.445312 151.144531 135.460938 150.789062 135.503906 C 150.609375 135.527344 150.433594 135.542969 150.253906 135.566406 L 149.722656 135.671875 C 149.542969 135.695312 149.375 135.753906 149.195312 135.792969 C 149.019531 135.835938 148.847656 135.878906 148.675781 135.941406 L 148.160156 136.105469 C 147.996094 136.175781 147.824219 136.242188 147.65625 136.308594 C 147.480469 136.371094 147.316406 136.441406 147.152344 136.523438 L 146.648438 136.753906 C 146.3125 136.910156 146 137.105469 145.644531 137.265625 C 145.90625 136.992188 146.179688 136.726562 146.476562 136.488281 Z M 139.050781 139.996094 C 139.507812 139.917969 139.949219 139.800781 140.386719 139.679688 C 141.265625 139.425781 142.097656 139.066406 142.976562 138.632812 C 142.710938 139.058594 142.332031 139.394531 141.921875 139.671875 C 141.507812 139.949219 141.050781 140.167969 140.570312 140.304688 C 140.089844 140.445312 139.589844 140.519531 139.089844 140.503906 C 138.59375 140.503906 138.097656 140.398438 137.636719 140.21875 C 138.128906 140.128906 138.59375 140.085938 139.050781 139.996094 Z M 114.433594 131.695312 C 113.851562 131.683594 113.265625 131.707031 112.679688 131.730469 L 110.910156 131.804688 C 110.316406 131.832031 109.722656 131.851562 109.109375 131.835938 C 109.671875 131.585938 110.257812 131.425781 110.847656 131.304688 C 111.445312 131.183594 112.042969 131.101562 112.652344 131.078125 C 113.261719 131.050781 113.875 131.078125 114.480469 131.1875 C 115.082031 131.292969 115.695312 131.472656 116.199219 131.835938 C 115.597656 131.726562 115.015625 131.707031 114.433594 131.695312 Z M 116.738281 130.664062 C 116.292969 130.589844 115.847656 130.535156 115.398438 130.492188 C 114.953125 130.445312 114.503906 130.40625 114.050781 130.378906 L 112.65625 130.300781 C 113.082031 130.066406 113.554688 129.941406 114.027344 129.871094 C 114.5 129.800781 114.988281 129.789062 115.46875 129.839844 C 115.949219 129.882812 116.421875 129.996094 116.875 130.167969 C 117.328125 130.332031 117.75 130.578125 118.117188 130.890625 C 117.632812 130.832031 117.191406 130.726562 116.738281 130.664062 Z M 120.324219 130.339844 C 120.015625 130.277344 119.710938 130.207031 119.410156 130.121094 C 119.109375 130.035156 118.808594 129.941406 118.511719 129.824219 C 118.210938 129.707031 117.910156 129.582031 117.617188 129.398438 C 117.957031 129.3125 118.289062 129.308594 118.617188 129.328125 C 118.945312 129.347656 119.269531 129.402344 119.589844 129.492188 C 119.90625 129.582031 120.214844 129.703125 120.507812 129.863281 C 120.796875 130.027344 121.078125 130.226562 121.289062 130.503906 C 120.941406 130.464844 120.632812 130.40625 120.324219 130.339844 Z M 43.183594 122.480469 C 42.1875 122.851562 41.140625 123.039062 40.070312 123.039062 C 35.679688 123.039062 32.015625 119.871094 31.246094 115.703125 C 31.914062 116.722656 32.894531 117.640625 34.101562 118.308594 C 36.792969 119.800781 39.746094 119.671875 42.007812 117.964844 C 43.945312 116.496094 46.441406 116.542969 48.265625 116.878906 C 44.167969 117.828125 43.34375 121.378906 43.183594 122.480469 Z M 99.164062 122.351562 C 100.039062 121.851562 101.148438 121.882812 102.460938 122.441406 C 103.542969 122.898438 104.203125 123.777344 104.316406 124.910156 C 104.410156 125.804688 104.140625 126.753906 103.609375 127.566406 C 104.597656 128.238281 107.433594 129.777344 110.707031 128.019531 C 112.238281 127.195312 113.789062 126.6875 115.324219 126.503906 C 118.769531 126.09375 125.121094 126.296875 128.890625 132.261719 C 130.105469 134.179688 131.742188 135.636719 133.625 136.46875 C 135.089844 137.117188 136.933594 137.617188 138.882812 137.378906 C 138.597656 137.355469 138.316406 137.316406 138.03125 137.261719 C 135.675781 136.808594 133.667969 135.347656 132.523438 133.253906 C 127.140625 123.421875 117.21875 122.097656 113.199219 121.984375 C 113.015625 121.976562 112.847656 121.867188 112.769531 121.699219 C 111.640625 119.257812 109.382812 117.59375 106.730469 117.238281 C 106.71875 117.238281 106.710938 117.234375 106.703125 117.234375 C 106.679688 117.230469 106.65625 117.222656 106.636719 117.214844 C 106.625 117.214844 106.613281 117.207031 106.601562 117.199219 C 106.582031 117.195312 106.566406 117.183594 106.546875 117.175781 C 106.53125 117.167969 106.523438 117.15625 106.511719 117.148438 C 106.496094 117.136719 106.484375 117.132812 106.472656 117.121094 C 106.402344 117.058594 105.632812 116.414062 104.417969 115.929688 C 104.375 115.921875 104.335938 115.90625 104.296875 115.882812 C 102.664062 115.261719 100.285156 114.960938 97.703125 116.636719 C 95.332031 118.175781 93.953125 120.667969 94.105469 123.140625 C 94.238281 125.320312 95.53125 127.164062 97.648438 128.195312 C 99.152344 128.929688 100.625 128.878906 101.796875 128.066406 C 102.820312 127.347656 103.460938 126.09375 103.347656 125.007812 C 103.292969 124.46875 103.027344 123.742188 102.082031 123.339844 C 101.066406 122.90625 100.25 122.859375 99.65625 123.195312 C 98.765625 123.703125 98.589844 124.9375 98.585938 124.953125 C 98.550781 125.21875 98.308594 125.410156 98.039062 125.371094 C 97.769531 125.335938 97.582031 125.09375 97.617188 124.828125 C 97.621094 124.757812 97.847656 123.101562 99.164062 122.351562 Z M 108.273438 122.910156 C 107.988281 122.671875 107.695312 122.445312 107.390625 122.234375 C 106.773438 121.808594 106.121094 121.433594 105.4375 120.972656 C 105.855469 120.945312 106.261719 121.03125 106.652344 121.152344 C 107.042969 121.28125 107.414062 121.464844 107.761719 121.699219 C 108.105469 121.933594 108.410156 122.230469 108.660156 122.570312 C 108.902344 122.914062 109.070312 123.3125 109.109375 123.726562 C 108.816406 123.421875 108.5625 123.152344 108.273438 122.910156 Z M 106.496094 119.296875 C 107.144531 119.460938 107.769531 119.730469 108.339844 120.085938 C 108.628906 120.261719 108.890625 120.480469 109.148438 120.695312 C 109.269531 120.8125 109.386719 120.9375 109.507812 121.054688 C 109.566406 121.117188 109.625 121.175781 109.679688 121.238281 L 109.828125 121.441406 C 110.253906 121.964844 110.523438 122.59375 110.699219 123.222656 C 110.28125 122.707031 109.910156 122.203125 109.445312 121.78125 C 109.230469 121.554688 108.988281 121.367188 108.75 121.167969 C 108.5 120.988281 108.257812 120.796875 107.992188 120.640625 C 107.472656 120.308594 106.921875 120.023438 106.339844 119.777344 C 105.757812 119.535156 105.160156 119.328125 104.53125 119.136719 C 105.183594 119.058594 105.855469 119.136719 106.496094 119.296875 Z M 97.917969 119.304688 C 98.019531 119.097656 98.089844 118.867188 98.246094 118.683594 C 98.5 118.285156 98.902344 117.964844 99.34375 117.765625 C 99.792969 117.5625 100.292969 117.503906 100.761719 117.558594 C 101.226562 117.617188 101.679688 117.769531 102.042969 118.050781 C 101.585938 118.027344 101.160156 118.027344 100.753906 118.066406 C 100.34375 118.105469 99.960938 118.207031 99.605469 118.363281 C 99.261719 118.523438 98.917969 118.722656 98.628906 119.015625 L 98.511719 119.117188 L 98.40625 119.230469 L 98.191406 119.460938 C 98.046875 119.621094 97.925781 119.800781 97.761719 119.96875 C 97.796875 119.75 97.847656 119.527344 97.917969 119.304688 Z M 97.917969 119.304688 " fill-opacity="1" fill-rule="nonzero"/></g><g fill="#ffffff" fill-opacity="1"><g transform="translate(21.185625, 219.350419)"><g><path d="M 7.046875 -46.328125 C 9.359375 -46.234375 10.757812 -46.1875 11.25 -46.1875 L 13.75 -46.1875 C 14.976562 -46.1875 15.960938 -46.28125 16.703125 -46.46875 L 16.671875 0 L 7.046875 0 Z M 7.046875 -46.328125 "/></g></g></g><g fill="#ffffff" fill-opacity="1"><g transform="translate(54.896138, 219.350419)"><g><path d="M 35.15625 -3.390625 C 33.457031 -2.035156 31.253906 -0.984375 28.546875 -0.234375 C 25.835938 0.503906 22.507812 0.875 18.5625 0.875 C 14.613281 0.875 10.414062 0.515625 5.96875 -0.203125 L 5.96875 -45.984375 C 10.457031 -46.703125 14.351562 -47.0625 17.65625 -47.0625 C 20.957031 -47.0625 23.664062 -46.75 25.78125 -46.125 C 27.90625 -45.5 29.640625 -44.648438 30.984375 -43.578125 C 33.617188 -41.523438 34.9375 -38.859375 34.9375 -35.578125 C 34.9375 -32.304688 33.742188 -29.59375 31.359375 -27.4375 C 34.179688 -26.550781 36.367188 -24.882812 37.921875 -22.4375 C 39.335938 -20.238281 40.046875 -17.800781 40.046875 -15.125 C 40.046875 -12.445312 39.65625 -10.160156 38.875 -8.265625 C 38.101562 -6.367188 36.863281 -4.742188 35.15625 -3.390625 Z M 15.171875 -28.71875 C 16.148438 -28.5625 17.367188 -28.484375 18.828125 -28.484375 C 20.285156 -28.484375 21.484375 -28.671875 22.421875 -29.046875 C 23.359375 -29.429688 24.082031 -29.910156 24.59375 -30.484375 C 25.425781 -31.441406 25.84375 -32.765625 25.84375 -34.453125 C 25.84375 -37.992188 23.757812 -39.765625 19.59375 -39.765625 C 17.832031 -39.765625 16.359375 -39.695312 15.171875 -39.5625 Z M 20.3125 -21.28125 C 18.375 -21.28125 16.660156 -21.15625 15.171875 -20.90625 L 15.171875 -7.265625 C 16.796875 -6.847656 18.5 -6.640625 20.28125 -6.640625 C 22.0625 -6.640625 23.628906 -6.851562 24.984375 -7.28125 C 26.335938 -7.707031 27.476562 -8.289062 28.40625 -9.03125 C 30.28125 -10.5625 31.21875 -12.503906 31.21875 -14.859375 C 31.21875 -19.140625 27.582031 -21.28125 20.3125 -21.28125 Z M 20.3125 -21.28125 "/></g></g></g><g fill="#ffffff" fill-opacity="1"><g transform="translate(106.421659, 219.350419)"><g><path d="M 20.90625 -17.953125 C 20.207031 -17.910156 19.460938 -17.890625 18.671875 -17.890625 C 17.890625 -17.890625 16.722656 -17.945312 15.171875 -18.0625 L 15.171875 0 L 5.96875 0 L 5.96875 -46.4375 C 9.207031 -46.851562 13.191406 -47.0625 17.921875 -47.0625 C 24.359375 -47.0625 29.15625 -45.875 32.3125 -43.5 C 35.476562 -41.125 37.0625 -37.457031 37.0625 -32.5 C 37.0625 -28.65625 35.613281 -25.367188 32.71875 -22.640625 C 31.769531 -21.765625 30.679688 -21 29.453125 -20.34375 L 36.53125 -5.421875 C 37.925781 -2.335938 38.992188 -0.507812 39.734375 0.0625 L 39.5625 0.25 C 37.3125 -0.125 33.78125 -0.113281 28.96875 0.28125 Z M 18.578125 -38.859375 C 17.398438 -38.859375 16.265625 -38.800781 15.171875 -38.6875 L 15.171875 -25.421875 C 16.304688 -25.253906 17.640625 -25.171875 19.171875 -25.171875 C 20.703125 -25.171875 21.988281 -25.304688 23.03125 -25.578125 C 24.070312 -25.847656 24.972656 -26.257812 25.734375 -26.8125 C 27.378906 -28.039062 28.203125 -29.878906 28.203125 -32.328125 C 28.203125 -34.785156 27.34375 -36.507812 25.625 -37.5 C 24.03125 -38.40625 21.679688 -38.859375 18.578125 -38.859375 Z M 18.578125 -38.859375 "/></g></g></g><g fill="#ffffff" fill-opacity="1"><g transform="translate(157.808271, 219.350419)"><g><path d="M 9.34375 0.28125 C 7.351562 0.09375 5.023438 0 2.359375 0 L -0.375 0 L 14.71875 -42.328125 C 15.394531 -44.234375 15.734375 -45.34375 15.734375 -45.65625 C 15.734375 -45.96875 15.722656 -46.15625 15.703125 -46.21875 L 15.734375 -46.296875 C 17.234375 -46.222656 18.832031 -46.1875 20.53125 -46.1875 C 21.914062 -46.1875 23.582031 -46.210938 25.53125 -46.265625 L 25.5625 -46.1875 C 25.507812 -46.09375 25.484375 -45.96875 25.484375 -45.8125 C 25.484375 -45.363281 25.832031 -44.191406 26.53125 -42.296875 L 41.953125 0.109375 C 41.492188 0.078125 40.953125 0.0625 40.328125 0.0625 C 40.328125 0.0625 39.722656 0.0390625 38.515625 0 C 37.929688 0 37.410156 0 36.953125 0 L 31.5625 0 L 28.296875 -10 L 12.609375 -10 Z M 25.59375 -18.34375 L 20.34375 -34.484375 L 15.25 -18.34375 Z M 25.59375 -18.34375 "/></g></g></g><g fill="#ffffff" fill-opacity="1"><g transform="translate(209.333792, 219.350419)"><g><path d="M 15.34375 0.203125 C 13.125 0.0664062 10.488281 0 7.4375 0 L 6.328125 0 L 6.328125 -46.359375 C 7.753906 -46.242188 8.769531 -46.1875 9.375 -46.1875 L 10.796875 -46.1875 C 12.628906 -46.1875 14.144531 -46.28125 15.34375 -46.46875 L 15.34375 -27.953125 L 31.671875 -27.953125 L 31.671875 -46.359375 C 33.597656 -46.242188 35.46875 -46.1875 37.28125 -46.1875 C 39.101562 -46.1875 40.242188 -46.28125 40.703125 -46.46875 L 40.703125 0.203125 C 39.585938 0.0664062 37.390625 0 34.109375 0 L 31.671875 0 L 31.671875 -19.625 L 15.34375 -19.625 Z M 15.34375 0.203125 "/></g></g></g><g fill="#ffffff" fill-opacity="1"><g transform="translate(266.658721, 219.350419)"><g><path d="M 7.046875 -46.328125 C 9.359375 -46.234375 10.757812 -46.1875 11.25 -46.1875 L 13.75 -46.1875 C 14.976562 -46.1875 15.960938 -46.28125 16.703125 -46.46875 L 16.671875 0 L 7.046875 0 Z M 7.046875 -46.328125 "/></g></g></g><g fill="#ffffff" fill-opacity="1"><g transform="translate(300.369236, 219.350419)"><g><path d="M 15.34375 0.203125 C 14.238281 0.0664062 12.097656 0 8.921875 0 L 6.140625 0 L 6.140625 -46.328125 C 7.628906 -46.234375 9.265625 -46.1875 11.046875 -46.1875 C 12.828125 -46.1875 14.085938 -46.28125 14.828125 -46.46875 L 26.5 -26.640625 L 37.71875 -46.46875 C 38.457031 -46.28125 39.867188 -46.1875 41.953125 -46.1875 C 44.035156 -46.1875 45.816406 -46.234375 47.296875 -46.328125 L 47.296875 0 L 44.515625 0 C 41.347656 0 39.207031 0.0664062 38.09375 0.203125 L 38.09375 -30.90625 L 26.734375 -10.59375 L 15.34375 -29.28125 Z M 15.34375 0.203125 "/></g></g></g></svg>